<svg width="137" height="38" viewBox="0 0 137 38" fill="none" xmlns="http://www.w3.org/2000/svg">
<path d="M44.3018 23.923V11.0635H52.4033V12.8638H46.2858V16.5563H51.8889V18.3567H46.2858V22.1227H52.4951V23.923H44.3018Z" fill="#BACFD5"/>
<path d="M58.3663 24.1802C57.6192 24.1802 56.9273 23.9965 56.2904 23.6291C55.6536 23.2617 55.1392 22.735 54.7473 22.0492C54.3676 21.3511 54.1778 20.5122 54.1778 19.5324V19.2568C54.1778 18.2893 54.3676 17.4565 54.7473 16.7584C55.1269 16.0603 55.6352 15.5276 56.272 15.1602C56.9089 14.7927 57.607 14.609 58.3663 14.609C58.9542 14.609 59.4441 14.6825 59.836 14.8295C60.2401 14.9765 60.5708 15.1663 60.828 15.399C61.0852 15.6194 61.2811 15.8521 61.4159 16.0971H61.7098V11.0635H63.602V23.923H61.7465V22.6371H61.4526C61.2199 23.029 60.8647 23.3841 60.3871 23.7026C59.9217 24.021 59.2481 24.1802 58.3663 24.1802ZM58.8991 22.5268C59.7196 22.5268 60.3932 22.2635 60.9198 21.7369C61.4587 21.2103 61.7282 20.4571 61.7282 19.4773V19.312C61.7282 18.3444 61.4648 17.5973 60.9382 17.0707C60.4116 16.5441 59.7319 16.2808 58.8991 16.2808C58.0907 16.2808 57.4172 16.5441 56.8783 17.0707C56.3516 17.5973 56.0883 18.3444 56.0883 19.312V19.4773C56.0883 20.4571 56.3516 21.2103 56.8783 21.7369C57.4172 22.2635 58.0907 22.5268 58.8991 22.5268Z" fill="#BACFD5"/>
<path d="M65.9465 19.4406V19.165C65.9465 18.2097 66.1364 17.3953 66.516 16.7217C66.908 16.0481 67.4223 15.5276 68.0592 15.1602C68.696 14.7927 69.3941 14.609 70.1535 14.609C71.0353 14.609 71.7089 14.7744 72.1742 15.105C72.6519 15.4357 73.0009 15.7909 73.2214 16.1706H73.5153V14.8662H75.3524V25.7785C75.3524 26.3296 75.187 26.7705 74.8564 27.1012C74.5379 27.4318 74.0971 27.5972 73.5337 27.5972H67.4346V25.9438H72.9458C73.301 25.9438 73.4786 25.7601 73.4786 25.3927V22.5085H73.1846C73.0499 22.7289 72.8601 22.9555 72.6151 23.1882C72.3702 23.4209 72.0456 23.6107 71.6415 23.7577C71.2496 23.9046 70.7536 23.9781 70.1535 23.9781C69.3941 23.9781 68.6899 23.8005 68.0408 23.4454C67.404 23.078 66.8957 22.5575 66.516 21.8839C66.1364 21.198 65.9465 20.3836 65.9465 19.4406ZM70.6678 22.3248C71.4884 22.3248 72.162 22.0676 72.6886 21.5532C73.2275 21.0266 73.4969 20.304 73.4969 19.3854V19.2201C73.4969 18.2771 73.2336 17.5545 72.707 17.0523C72.1804 16.538 71.5006 16.2808 70.6678 16.2808C69.8595 16.2808 69.1859 16.538 68.6471 17.0523C68.1204 17.5545 67.8571 18.2771 67.8571 19.2201V19.3854C67.8571 20.304 68.1204 21.0266 68.6471 21.5532C69.1859 22.0676 69.8595 22.3248 70.6678 22.3248Z" fill="#BACFD5"/>
<path d="M82.2901 24.1802C81.3715 24.1802 80.5694 23.9904 79.8835 23.6107C79.1977 23.2188 78.6588 22.6738 78.2669 21.9757C77.8872 21.2654 77.6974 20.4448 77.6974 19.514V19.2936C77.6974 18.3506 77.8872 17.53 78.2669 16.8319C78.6465 16.1216 79.1732 15.5766 79.8468 15.1969C80.5326 14.805 81.3226 14.609 82.2166 14.609C83.0861 14.609 83.8455 14.805 84.4946 15.1969C85.1559 15.5766 85.6703 16.1093 86.0377 16.7952C86.4051 17.481 86.5888 18.2832 86.5888 19.2017V19.9182H79.6263C79.6508 20.7143 79.9141 21.3511 80.4163 21.8288C80.9306 22.2941 81.5675 22.5268 82.3268 22.5268C83.0372 22.5268 83.5699 22.3676 83.9251 22.0492C84.2925 21.7308 84.5742 21.3634 84.7701 20.947L86.3317 21.7553C86.1602 22.0982 85.9091 22.4595 85.5784 22.8391C85.26 23.2188 84.8375 23.5372 84.3109 23.7944C83.7842 24.0516 83.1106 24.1802 82.2901 24.1802ZM79.6447 18.4669H84.6599C84.6109 17.7811 84.366 17.2483 83.9251 16.8686C83.4842 16.4767 82.9086 16.2808 82.1982 16.2808C81.4879 16.2808 80.9061 16.4767 80.453 16.8686C80.0121 17.2483 79.7427 17.7811 79.6447 18.4669Z" fill="#BACFD5"/>
<path d="M88.8114 23.923V11.0635H90.7955V16.4094H91.0894L95.8842 11.0635H98.4744L92.6693 17.4014L98.6765 23.923H96.0128L91.0894 18.4669H90.7955V23.923H88.8114Z" fill="#BACFD5"/>
<path d="M103.033 24.1802C102.384 24.1802 101.803 24.07 101.288 23.8495C100.786 23.6291 100.382 23.3045 100.076 22.8759C99.7818 22.4472 99.6348 21.9267 99.6348 21.3144C99.6348 20.6898 99.7818 20.1754 100.076 19.7712C100.382 19.3548 100.792 19.0425 101.307 18.8343C101.833 18.6261 102.427 18.522 103.089 18.522H105.844V17.9341C105.844 17.4075 105.685 16.985 105.367 16.6666C105.048 16.3481 104.558 16.1889 103.897 16.1889C103.248 16.1889 102.752 16.342 102.409 16.6482C102.066 16.9544 101.839 17.3524 101.729 17.8423L99.9655 17.2728C100.112 16.7829 100.345 16.342 100.664 15.9501C100.994 15.5459 101.429 15.2214 101.968 14.9765C102.507 14.7315 103.156 14.609 103.915 14.609C105.091 14.609 106.016 14.9091 106.689 15.5092C107.363 16.1093 107.7 16.9605 107.7 18.0627V21.792C107.7 22.1594 107.871 22.3431 108.214 22.3431H108.986V23.923H107.571C107.142 23.923 106.793 23.8128 106.524 23.5923C106.254 23.3719 106.12 23.0718 106.12 22.6922V22.6371H105.844C105.746 22.8208 105.599 23.0351 105.403 23.28C105.207 23.525 104.919 23.7393 104.54 23.923C104.16 24.0945 103.658 24.1802 103.033 24.1802ZM103.309 22.6187C104.068 22.6187 104.681 22.4044 105.146 21.9757C105.611 21.5348 105.844 20.9347 105.844 20.1754V19.9917H103.199C102.697 19.9917 102.292 20.1019 101.986 20.3223C101.68 20.5306 101.527 20.8429 101.527 21.2593C101.527 21.6757 101.686 22.0063 102.005 22.2513C102.323 22.4962 102.758 22.6187 103.309 22.6187Z" fill="#BACFD5"/>
<path d="M110.825 23.923V14.8662H112.681V15.9317H112.975C113.122 15.5521 113.354 15.2765 113.673 15.105C114.003 14.9213 114.408 14.8295 114.885 14.8295H115.969V16.538H114.812C114.199 16.538 113.697 16.7094 113.305 17.0523C112.913 17.383 112.718 17.8974 112.718 18.5955V23.923H110.825Z" fill="#BACFD5"/>
<path d="M121.328 23.923C120.777 23.923 120.336 23.7577 120.006 23.427C119.687 23.0963 119.528 22.6554 119.528 22.1043V16.4645H117.03V14.8662H119.528V11.8718H121.42V14.8662H124.121V16.4645H121.42V21.7736C121.42 22.1411 121.592 22.3248 121.935 22.3248H123.827V23.923H121.328Z" fill="#BACFD5"/>
<rect x="17.5264" y="20.7822" width="12.9856" height="12.9856" transform="rotate(-45 17.5264 20.7822)" stroke="#BACFD5" stroke-width="1.72226"/>
<rect x="17.5264" y="15.583" width="12.9856" height="12.9856" transform="rotate(-45 17.5264 15.583)" stroke="#BACFD5" stroke-width="1.72226"/>
</svg>
