<svg width="205" height="50" viewBox="0 0 205 50" fill="none" xmlns="http://www.w3.org/2000/svg">
<path d="M46.2014 32.5177C44.5524 32.5177 43.0903 32.1659 41.815 31.4623C40.5398 30.7477 39.5339 29.7088 38.7973 28.3457C38.0718 26.9715 37.709 25.295 37.709 23.3161C37.709 21.3373 38.0993 19.6443 38.8798 18.2372C39.6713 16.83 40.7487 15.7526 42.1119 15.0051C43.4751 14.2465 45.0086 13.8673 46.7126 13.8673C47.768 13.8673 48.7849 13.9772 49.7633 14.1971C50.7417 14.4059 51.8026 14.8732 52.9459 15.5987L51.8906 18.534C51.0221 17.9294 50.1426 17.4951 49.2521 17.2313C48.3726 16.9674 47.4932 16.8355 46.6137 16.8355C44.9757 16.8355 43.6674 17.3962 42.689 18.5175C41.7216 19.6388 41.2379 21.1394 41.2379 23.0193C41.2379 25.0201 41.6831 26.6032 42.5736 27.7685C43.4641 28.9228 44.6404 29.5 46.1025 29.5C46.8171 29.5 47.4602 29.4395 48.0318 29.3186C48.6145 29.1867 49.2631 28.9448 49.9777 28.593V25.295H46.086V22.5246H53.1273V30.308C51.7971 31.1985 50.5933 31.7921 49.516 32.0889C48.4496 32.3748 47.3448 32.5177 46.2014 32.5177Z" fill="#BACFD5"/>
<path d="M56.5903 32.2209V24.6189C56.5903 23.4096 56.5188 22.3817 56.3759 21.5352C56.244 20.6777 56.112 20.0346 55.9801 19.6059H59.3771C59.4651 19.8697 59.5585 20.2655 59.6574 20.7931C59.7564 21.3208 59.8278 21.7331 59.8718 22.0299C60.4765 21.1614 61.1361 20.5018 61.8506 20.0511C62.5652 19.5894 63.2028 19.3585 63.7635 19.3585C64.9288 19.3585 65.7533 19.8202 66.237 20.7437C66.7317 21.6561 66.9791 22.7445 66.9791 24.0087L64.2252 24.4375C64.1813 23.8768 64.0438 23.4261 63.813 23.0853C63.5821 22.7445 63.2028 22.5741 62.6751 22.5741C62.4003 22.5741 62.087 22.728 61.7352 23.0358C61.3834 23.3326 61.0536 23.7174 60.7458 24.1901C60.438 24.6628 60.2071 25.1576 60.0532 25.6742V32.2209H56.5903Z" fill="#BACFD5"/>
<path d="M72.6022 32.5177C71.7777 32.5177 71.0412 32.3418 70.3926 31.99C69.7549 31.6382 69.2547 31.171 68.892 30.5883C68.5292 30.0057 68.3478 29.379 68.3478 28.7084C68.3478 28.0708 68.4907 27.4387 68.7765 26.8121C69.0733 26.1745 69.579 25.6248 70.2936 25.1631C71.0192 24.7013 72.0196 24.41 73.2948 24.2891C73.5807 24.2561 73.9489 24.2231 74.3997 24.1901C74.8614 24.1571 75.3066 24.1297 75.7354 24.1077C76.1641 24.0747 76.461 24.0582 76.6259 24.0582V23.4481C76.6259 22.9863 76.362 22.651 75.8343 22.4422C75.3176 22.2333 74.5921 22.1289 73.6576 22.1289C73.009 22.1289 72.3549 22.2608 71.6953 22.5246C71.0467 22.7885 70.3596 23.1732 69.634 23.6789C69.645 23.4041 69.656 22.9314 69.667 22.2608C69.689 21.5792 69.722 20.9855 69.7659 20.4798C70.4695 20.205 71.2061 19.9521 71.9756 19.7213C72.7562 19.4794 73.6686 19.3585 74.713 19.3585C76.329 19.3585 77.6263 19.6938 78.6047 20.3644C79.5941 21.024 80.0888 21.843 80.0888 22.8214V27.6531C80.0888 28.5435 80.1658 29.3571 80.3197 30.0936C80.4846 30.8192 80.6989 31.5283 80.9628 32.2209H77.6153C77.5383 32.045 77.4394 31.8086 77.3184 31.5118C77.1975 31.215 77.0931 30.8961 77.0051 30.5553C76.3125 31.2479 75.587 31.7481 74.8284 32.056C74.0699 32.3638 73.3278 32.5177 72.6022 32.5177ZM73.5092 29.6979C74.0259 29.6979 74.5261 29.5879 75.0098 29.3681C75.4935 29.1482 76.0322 28.637 76.6259 27.8345V26.3503C76.384 26.3613 75.9717 26.3943 75.3891 26.4493C74.8064 26.4933 74.3557 26.5372 74.0369 26.5812C73.1794 26.6692 72.5913 26.8725 72.2724 27.1913C71.9646 27.4992 71.8107 27.8565 71.8107 28.2632C71.8107 28.659 71.9646 28.9998 72.2724 29.2856C72.5913 29.5604 73.0035 29.6979 73.5092 29.6979Z" fill="#BACFD5"/>
<path d="M88.4988 32.5177C87.3995 32.5177 86.3826 32.3803 85.4481 32.1054C84.5247 31.8196 83.7936 31.4898 83.2549 31.116L83.931 28.0818C84.5467 28.5875 85.2887 28.9943 86.1572 29.3021C87.0367 29.5989 87.8392 29.7473 88.5648 29.7473C89.1474 29.7473 89.6201 29.6374 89.9829 29.4175C90.3567 29.1867 90.5436 28.9283 90.5436 28.6425C90.5436 28.2797 90.3512 27.9609 89.9664 27.6861C89.5927 27.4002 88.8176 27.1309 87.6413 26.878C86.476 26.6252 85.5855 26.3229 84.9699 25.9711C84.3543 25.6193 83.931 25.218 83.7002 24.7673C83.4803 24.3166 83.3703 23.8328 83.3703 23.3161C83.3703 23.0193 83.4528 22.651 83.6177 22.2113C83.7826 21.7606 84.0629 21.3208 84.4587 20.8921C84.8655 20.4524 85.4151 20.0896 86.1077 19.8037C86.8113 19.5069 87.6908 19.3585 88.7462 19.3585C89.7576 19.3585 90.6315 19.4684 91.3681 19.6883C92.1157 19.8972 92.7258 20.1171 93.1985 20.3479L92.7203 23.2667C92.2586 23.0138 91.6759 22.7555 90.9723 22.4916C90.2688 22.2168 89.4882 22.0794 88.6307 22.0794C87.9052 22.0794 87.405 22.2058 87.1301 22.4587C86.8553 22.7005 86.7179 22.9479 86.7179 23.2007C86.7179 23.5085 86.8553 23.7504 87.1301 23.9263C87.4159 24.0912 88.103 24.2836 89.1914 24.5034C90.0489 24.6683 90.8294 24.8992 91.533 25.196C92.2476 25.4929 92.8192 25.8941 93.248 26.3998C93.6767 26.9055 93.8911 27.5486 93.8911 28.3292C93.8911 29.1207 93.6492 29.8353 93.1655 30.4729C92.6928 31.0995 92.0497 31.5997 91.2362 31.9735C90.4227 32.3363 89.5102 32.5177 88.4988 32.5177Z" fill="#BACFD5"/>
<path d="M101.295 32.5177C100.196 32.5177 99.179 32.3803 98.2445 32.1054C97.3211 31.8196 96.59 31.4898 96.0513 31.116L96.7274 28.0818C97.343 28.5875 98.0851 28.9943 98.9536 29.3021C99.8331 29.5989 100.636 29.7473 101.361 29.7473C101.944 29.7473 102.417 29.6374 102.779 29.4175C103.153 29.1867 103.34 28.9283 103.34 28.6425C103.34 28.2797 103.148 27.9609 102.763 27.6861C102.389 27.4002 101.614 27.1309 100.438 26.878C99.2724 26.6252 98.3819 26.3229 97.7663 25.9711C97.1507 25.6193 96.7274 25.218 96.4965 24.7673C96.2767 24.3166 96.1667 23.8328 96.1667 23.3161C96.1667 23.0193 96.2492 22.651 96.4141 22.2113C96.579 21.7606 96.8593 21.3208 97.2551 20.8921C97.6619 20.4524 98.2115 20.0896 98.9041 19.8037C99.6077 19.5069 100.487 19.3585 101.543 19.3585C102.554 19.3585 103.428 19.4684 104.164 19.6883C104.912 19.8972 105.522 20.1171 105.995 20.3479L105.517 23.2667C105.055 23.0138 104.472 22.7555 103.769 22.4916C103.065 22.2168 102.285 22.0794 101.427 22.0794C100.702 22.0794 100.201 22.2058 99.9265 22.4587C99.6517 22.7005 99.5143 22.9479 99.5143 23.2007C99.5143 23.5085 99.6517 23.7504 99.9265 23.9263C100.212 24.0912 100.899 24.2836 101.988 24.5034C102.845 24.6683 103.626 24.8992 104.329 25.196C105.044 25.4929 105.616 25.8941 106.044 26.3998C106.473 26.9055 106.687 27.5486 106.687 28.3292C106.687 29.1207 106.446 29.8353 105.962 30.4729C105.489 31.0995 104.846 31.5997 104.033 31.9735C103.219 32.3363 102.307 32.5177 101.295 32.5177Z" fill="#BACFD5"/>
<path d="M109.276 32.2209C109.276 32.2209 109.276 31.9405 109.276 31.3799C109.276 30.8082 109.276 30.0661 109.276 29.1537C109.276 28.2302 109.276 27.2298 109.276 26.1525C109.276 25.0641 109.276 23.9922 109.276 22.9369C109.276 21.8815 109.276 20.9361 109.276 20.1006C109.276 19.2651 109.276 18.6494 109.276 18.2537C109.276 16.9234 109.265 15.7581 109.243 14.7577C109.232 13.7463 109.183 12.9713 109.095 12.4326H112.739C112.739 12.4326 112.739 12.7294 112.739 13.3231C112.739 13.9167 112.739 14.6588 112.739 15.5493C112.739 16.4287 112.739 17.3247 112.739 18.2372C112.739 19.1386 112.739 19.9192 112.739 20.5788C112.739 21.2274 112.739 21.6067 112.739 21.7166C113.344 20.9361 114.075 20.3479 114.933 19.9521C115.801 19.5564 116.675 19.3585 117.555 19.3585C120.072 19.3585 121.331 21.0735 121.331 24.5034C121.331 24.9102 121.331 25.4379 121.331 26.0865C121.331 26.7241 121.331 27.3947 121.331 28.0983C121.331 28.8019 121.331 29.467 121.331 30.0936C121.331 30.7202 121.331 31.2314 121.331 31.6272C121.331 32.023 121.331 32.2209 121.331 32.2209H117.868C117.868 32.2209 117.868 31.957 117.868 31.4293C117.868 30.8906 117.868 30.2365 117.868 29.467C117.868 28.6865 117.868 27.9279 117.868 27.1913C117.868 26.4438 117.868 25.8556 117.868 25.4269C117.868 24.2176 117.714 23.4096 117.406 23.0028C117.098 22.5961 116.615 22.3927 115.955 22.3927C115.251 22.3927 114.592 22.6785 113.976 23.2502C113.372 23.8109 112.959 24.41 112.739 25.0476V32.2209H109.276Z" fill="#BACFD5"/>
<path d="M129.922 32.5177C128.185 32.5177 126.762 31.957 125.651 30.8357C124.541 29.7034 123.986 28.0763 123.986 25.9546C123.986 24.5364 124.266 23.3381 124.827 22.3597C125.398 21.3813 126.151 20.6392 127.086 20.1335C128.031 19.6168 129.059 19.3585 130.17 19.3585C131.917 19.3585 133.341 19.9247 134.441 21.057C135.551 22.1893 136.106 23.8218 136.106 25.9546C136.106 27.3727 135.82 28.571 135.249 29.5494C134.688 30.5169 133.94 31.2534 133.006 31.7591C132.071 32.2648 131.044 32.5177 129.922 32.5177ZM130.054 29.7473C130.846 29.7473 131.472 29.412 131.934 28.7414C132.407 28.0598 132.643 27.1309 132.643 25.9546C132.643 24.7673 132.423 23.8383 131.983 23.1677C131.544 22.4861 130.901 22.1453 130.054 22.1453C129.252 22.1453 128.614 22.4861 128.141 23.1677C127.68 23.8383 127.449 24.7673 127.449 25.9546C127.449 27.1309 127.669 28.0598 128.108 28.7414C128.559 29.412 129.208 29.7473 130.054 29.7473Z" fill="#BACFD5"/>
<path d="M139.008 38.2728V26.2349C139.008 24.6958 138.975 23.3821 138.909 22.2938C138.854 21.2054 138.684 20.3094 138.398 19.6059H141.795C141.883 19.7927 141.971 20.0621 142.059 20.4139C142.158 20.7657 142.235 21.1999 142.29 21.7166C142.862 21.024 143.527 20.4578 144.285 20.0181C145.055 19.5784 145.885 19.3585 146.775 19.3585C147.699 19.3585 148.507 19.6278 149.199 20.1665C149.892 20.7052 150.425 21.4473 150.799 22.3927C151.184 23.3271 151.376 24.399 151.376 25.6083C151.376 27.0155 151.129 28.2412 150.634 29.2856C150.139 30.319 149.474 31.116 148.639 31.6767C147.803 32.2373 146.88 32.5177 145.868 32.5177C145.22 32.5177 144.637 32.4187 144.12 32.2209C143.604 32.034 143.054 31.7701 142.471 31.4293V34.0678C142.471 35.0572 142.493 35.8707 142.537 36.5083C142.592 37.1569 142.675 37.7451 142.785 38.2728H139.008ZM145.044 29.6814C145.802 29.6814 146.467 29.3516 147.039 28.692C147.622 28.0214 147.913 27.1199 147.913 25.9876C147.913 24.8662 147.704 23.9758 147.286 23.3161C146.869 22.6455 146.286 22.3102 145.538 22.3102C144.989 22.3102 144.428 22.5411 143.856 23.0028C143.285 23.4536 142.823 24.1187 142.471 24.9981V28.5106C143.109 28.9833 143.593 29.2966 143.922 29.4505C144.252 29.6044 144.626 29.6814 145.044 29.6814Z" fill="#BACFD5"/>
<path d="M154.278 38.2728V26.2349C154.278 24.6958 154.245 23.3821 154.179 22.2938C154.124 21.2054 153.954 20.3094 153.668 19.6059H157.065C157.153 19.7927 157.241 20.0621 157.329 20.4139C157.428 20.7657 157.505 21.1999 157.56 21.7166C158.131 21.024 158.797 20.4578 159.555 20.0181C160.325 19.5784 161.155 19.3585 162.045 19.3585C162.969 19.3585 163.777 19.6278 164.469 20.1665C165.162 20.7052 165.695 21.4473 166.069 22.3927C166.453 23.3271 166.646 24.399 166.646 25.6083C166.646 27.0155 166.399 28.2412 165.904 29.2856C165.409 30.319 164.744 31.116 163.908 31.6767C163.073 32.2373 162.15 32.5177 161.138 32.5177C160.49 32.5177 159.907 32.4187 159.39 32.2209C158.873 32.034 158.324 31.7701 157.741 31.4293V34.0678C157.741 35.0572 157.763 35.8707 157.807 36.5083C157.862 37.1569 157.945 37.7451 158.054 38.2728H154.278ZM160.314 29.6814C161.072 29.6814 161.737 29.3516 162.309 28.692C162.892 28.0214 163.183 27.1199 163.183 25.9876C163.183 24.8662 162.974 23.9758 162.556 23.3161C162.139 22.6455 161.556 22.3102 160.808 22.3102C160.259 22.3102 159.698 22.5411 159.126 23.0028C158.555 23.4536 158.093 24.1187 157.741 24.9981V28.5106C158.379 28.9833 158.862 29.2966 159.192 29.4505C159.522 29.6044 159.896 29.6814 160.314 29.6814Z" fill="#BACFD5"/>
<path d="M175.039 32.5177C173.951 32.5177 172.94 32.2758 172.005 31.7921C171.071 31.3084 170.312 30.5883 169.73 29.6319C169.158 28.6755 168.872 27.4992 168.872 26.103C168.872 24.0582 169.422 22.4257 170.521 21.2054C171.631 19.9741 173.137 19.3585 175.039 19.3585C176.425 19.3585 177.491 19.6718 178.238 20.2984C178.986 20.9141 179.503 21.7001 179.789 22.6565C180.085 23.613 180.234 24.6079 180.234 25.6413C180.234 25.7622 180.234 25.9326 180.234 26.1525C180.245 26.3723 180.25 26.5427 180.25 26.6637H170.752V24.4375H177.101C177.101 23.569 176.908 22.9424 176.523 22.5576C176.15 22.1618 175.6 21.964 174.874 21.964C173.984 21.964 173.319 22.2718 172.879 22.8874C172.45 23.503 172.236 24.5364 172.236 25.9876C172.236 27.2958 172.5 28.2522 173.028 28.8569C173.555 29.4505 174.33 29.7473 175.353 29.7473C176.166 29.7473 176.958 29.6539 177.727 29.467C178.508 29.2801 179.283 28.9613 180.052 28.5106L180.316 31.2974C179.426 31.7481 178.563 32.0615 177.727 32.2373C176.903 32.4242 176.007 32.5177 175.039 32.5177Z" fill="#BACFD5"/>
<path d="M183.268 32.2209V24.6189C183.268 23.4096 183.197 22.3817 183.054 21.5352C182.922 20.6777 182.79 20.0346 182.658 19.6059H186.055C186.143 19.8697 186.236 20.2655 186.335 20.7931C186.434 21.3208 186.506 21.7331 186.55 22.0299C187.154 21.1614 187.814 20.5018 188.528 20.0511C189.243 19.5894 189.881 19.3585 190.441 19.3585C191.607 19.3585 192.431 19.8202 192.915 20.7437C193.409 21.6561 193.657 22.7445 193.657 24.0087L190.903 24.4375C190.859 23.8768 190.722 23.4261 190.491 23.0853C190.26 22.7445 189.881 22.5741 189.353 22.5741C189.078 22.5741 188.765 22.728 188.413 23.0358C188.061 23.3326 187.731 23.7174 187.424 24.1901C187.116 24.6628 186.885 25.1576 186.731 25.6742V32.2209H183.268Z" fill="#BACFD5"/>
<path d="M27.584 21.0576H12.6315C13.2022 14.3355 18.8392 9.05762 25.709 9.05762H27.584V21.0576Z" stroke="#BACFD5" stroke-width="2.25"/>
<circle cx="22.334" cy="15.0576" r="1.875" fill="#BACFD5"/>
<path d="M17.834 41.2501V25.5576H27.584V30.4326C27.584 36.0589 23.3115 40.6872 17.834 41.2501Z" stroke="#BACFD5" stroke-width="2.25"/>
</svg>
