<svg width="214" height="34" viewBox="0 0 214 34" fill="none" xmlns="http://www.w3.org/2000/svg">
<path d="M44.5638 15.1232C44.5492 14.8897 44.5419 14.5394 44.5419 14.0723V13.2403C44.5419 12.6856 44.5273 12.2696 44.4981 11.9923C44.4689 11.7588 44.4543 11.153 44.4543 10.175C44.4543 9.82472 44.5565 9.55469 44.7608 9.36493C44.9798 9.16058 45.2717 9.05841 45.6366 9.05841C46.1037 9.05841 46.4175 9.16058 46.5781 9.36493C46.7387 9.56928 46.8189 9.905 46.8189 10.3721V11.2041L46.797 13.6125C46.7824 14.0796 46.7752 14.7802 46.7752 15.7144L46.797 17.5098C46.8116 17.7871 46.8189 18.1739 46.8189 18.6702C46.8189 19.0643 46.8335 19.6263 46.8627 20.3561C46.8919 21.0275 46.9065 21.5311 46.9065 21.8668C46.9065 22.1442 46.8262 22.3996 46.6657 22.6331C46.5197 22.8667 46.3154 22.9835 46.0526 22.9835C45.0309 22.9835 44.52 22.6404 44.52 21.9544C44.52 21.5749 44.5346 21.1516 44.5638 20.6845C44.593 20.3488 44.6076 19.8379 44.6076 19.1519C44.6076 18.6702 44.593 17.9769 44.5638 17.0719C43.8777 17.1303 42.6954 17.1595 41.0168 17.1595C39.9659 17.1595 39.1485 17.1595 38.5646 17.1595C37.9808 17.1449 37.5575 17.1084 37.2947 17.05L37.2728 19.5679C37.2728 19.7284 37.3093 20.159 37.3823 20.8597C37.4553 21.3268 37.4918 21.7355 37.4918 22.0858C37.4918 22.3047 37.3604 22.5164 37.0977 22.7207C36.8495 22.9105 36.616 23.0054 36.397 23.0054C35.8716 23.0054 35.514 22.8813 35.3242 22.6331C35.1344 22.3704 35.0396 21.9763 35.0396 21.4508L35.0177 19.7211C35.0031 19.5168 34.9958 19.2322 34.9958 18.8672C34.9958 18.3272 34.9812 17.5901 34.952 16.6559C34.9228 15.8093 34.9082 15.1962 34.9082 14.8167C34.9082 14.2475 34.9228 13.4519 34.952 12.4302C34.9812 11.4668 34.9958 10.7516 34.9958 10.2845C34.9958 9.81742 35.1126 9.5036 35.3461 9.34304C35.5796 9.18248 35.8424 9.1022 36.1343 9.1022C36.9517 9.1022 37.3604 9.37223 37.3604 9.9123C37.3604 10.8757 37.3385 11.7952 37.2947 12.671C37.2655 13.7804 37.2509 14.5905 37.2509 15.1014C37.6742 15.2035 38.1194 15.2692 38.5865 15.2984C39.0536 15.3276 39.7104 15.3422 40.557 15.3422C42.2794 15.3422 43.615 15.2692 44.5638 15.1232Z" fill="#BACFD5"/>
<path d="M50.7684 8.90514C51.2792 8.94893 51.7244 9.0876 52.104 9.32114C52.4835 9.54009 52.6732 9.87581 52.6732 10.3283C52.6732 10.664 52.5127 10.9341 52.1915 11.1384C51.885 11.3282 51.5128 11.423 51.0749 11.423C50.6516 11.423 50.3597 11.3136 50.1991 11.0946C50.0385 10.8757 49.9583 10.6494 49.9583 10.4159C49.9583 9.97799 50.0021 9.61307 50.0896 9.32114C50.1918 9.02921 50.4181 8.89055 50.7684 8.90514ZM52.52 19.2395C52.52 19.8087 52.5345 20.3488 52.5637 20.8597C52.6075 21.3559 52.6586 21.8595 52.717 22.3704C52.7024 22.5164 52.5929 22.6696 52.3886 22.8302C52.1842 22.9762 52.0018 23.0491 51.8412 23.0491C51.5639 23.0491 51.2792 22.9981 50.9873 22.8959C50.71 22.7791 50.5421 22.6404 50.4837 22.4799C50.3962 22.0128 50.3524 21.5968 50.3524 21.2319C50.3524 20.035 50.3159 18.6921 50.2429 17.2032C50.1845 15.8896 50.1553 14.97 50.1553 14.4445C50.1553 14.1818 50.2867 13.9555 50.5494 13.7658C50.8122 13.576 51.0895 13.4811 51.3814 13.4811C51.8047 13.4811 52.0967 13.576 52.2572 13.7658C52.4324 13.9555 52.52 14.2548 52.52 14.6635V19.2395Z" fill="#BACFD5"/>
<path d="M63.1577 22.9178C63.5518 23.1951 63.8146 23.5016 63.9459 23.8374C64.0919 24.1731 64.1649 24.6402 64.1649 25.2386C64.1649 25.5305 64.0773 25.8225 63.9021 26.1144C63.7416 26.4063 63.5737 26.618 63.3986 26.7494C62.0119 27.5084 60.6252 27.8879 59.2386 27.8879C58.5525 27.8879 57.9614 27.8003 57.4651 27.6251C56.9688 27.45 56.5017 27.2164 56.0638 26.9245C55.7719 26.7056 55.531 26.399 55.3413 26.0049C55.1661 25.6254 55.0786 25.2459 55.0786 24.8664C55.0786 24.3409 55.2391 23.8811 55.5602 23.487C55.896 23.0929 56.3412 22.8083 56.8958 22.6331C56.7936 22.4142 56.7426 22.1588 56.7426 21.8668C56.7426 21.5895 56.9469 21.1735 57.3556 20.6188C56.655 20.3853 56.1003 19.9693 55.6916 19.3708C55.2975 18.7724 55.1005 18.0717 55.1005 17.2689C55.1005 16.7727 55.2172 16.3348 55.4508 15.9552C55.6843 15.5611 56.0346 15.1087 56.5017 14.5978C56.8228 14.2475 57.2315 13.992 57.7278 13.8315C58.2241 13.6709 58.8445 13.5906 59.5889 13.5906C60.1143 13.5906 60.7639 13.7074 61.5375 13.9409C62.4571 13.2987 63.2672 12.9776 63.9678 12.9776C64.143 12.9776 64.34 13.0214 64.559 13.1089C64.7925 13.1965 64.9677 13.2841 65.0845 13.3717C65.172 13.5322 65.2158 13.8023 65.2158 14.1818C65.2158 14.3277 65.1501 14.4737 65.0188 14.6197C64.902 14.751 64.7487 14.8167 64.559 14.8167L64.0335 14.7948C63.7708 14.7656 63.5664 14.751 63.4205 14.751C63.2599 14.751 63.019 14.7656 62.6979 14.7948C63.0045 15.1597 63.238 15.5465 63.3986 15.9552C63.5737 16.3639 63.6613 16.8967 63.6613 17.5536C63.6613 18.0498 63.4788 18.568 63.1139 19.1081C62.749 19.6482 62.3184 20.0715 61.8221 20.378C61.0631 20.7867 60.18 20.9983 59.1729 21.0129C59.0561 21.1297 58.9539 21.2392 58.8663 21.3414C58.7934 21.4289 58.7569 21.5019 58.7569 21.5603C58.7569 21.7209 58.8955 21.8449 59.1729 21.9325C59.4502 22.0201 59.8735 22.0858 60.4428 22.1296C60.8807 22.1588 61.3623 22.2536 61.8878 22.4142C62.4279 22.5602 62.8512 22.728 63.1577 22.9178ZM59.3042 19.2176C59.9757 19.2176 60.5158 19.0351 60.9245 18.6702C61.3332 18.3053 61.5375 17.7871 61.5375 17.1157C61.5375 16.6048 61.355 16.1888 60.9901 15.8677C60.6252 15.5465 60.1581 15.386 59.5889 15.386C59.224 15.386 58.8299 15.4517 58.4066 15.583C57.9979 15.6998 57.7059 15.8896 57.5308 16.1523C57.4432 16.2691 57.3556 16.4953 57.268 16.831C57.1805 17.1522 57.1367 17.4003 57.1367 17.5755C57.1367 17.8236 57.2388 18.079 57.4432 18.3418C57.6621 18.5899 57.9395 18.8016 58.2752 18.9767C58.6255 19.1373 58.9685 19.2176 59.3042 19.2176ZM60.6836 23.9687C59.8808 23.8957 59.3115 23.8228 58.9758 23.7498C58.6547 23.6914 58.392 23.6184 58.1876 23.5308C57.4432 23.9249 57.071 24.3555 57.071 24.8226C57.071 25.2605 57.2972 25.5889 57.7497 25.8079C58.2022 26.0414 58.7204 26.1582 59.3042 26.1582C59.567 26.1582 59.9246 26.129 60.3771 26.0706C60.8296 26.0122 61.2091 25.9101 61.5156 25.7641C61.72 25.6619 61.8732 25.5597 61.9754 25.4576C62.0776 25.37 62.1287 25.2021 62.1287 24.954C62.1287 24.6475 61.9681 24.4139 61.647 24.2534C61.3259 24.0928 61.0047 23.9979 60.6836 23.9687Z" fill="#BACFD5"/>
<path d="M75.4121 23.0272C74.3174 23.0272 73.5802 22.6039 73.2007 21.7574C73.011 21.3341 72.8869 20.7867 72.8285 20.1152C72.7701 19.4292 72.7409 18.6264 72.7409 17.7068V17.0281C72.7409 15.9771 72.3906 15.4517 71.69 15.4517C71.2813 15.4517 70.8726 15.6633 70.4639 16.0866C70.0552 16.4953 69.7122 17.0427 69.4348 17.7287C69.1721 18.4002 69.0407 19.1008 69.0407 19.8306C69.0407 20.3123 69.0626 20.7502 69.1064 21.1443C69.1356 21.6406 69.1502 22.0201 69.1502 22.2828C69.1502 22.7791 68.8072 23.0272 68.1211 23.0272C67.7854 23.0272 67.4862 22.9543 67.2235 22.8083C66.9753 22.6623 66.8513 22.4726 66.8513 22.239C66.9096 21.4946 66.9388 20.575 66.9388 19.4803L66.9169 16.5902C66.9169 16.1231 66.8804 14.3934 66.8075 11.4011L66.7418 9.38683C66.7418 9.0657 66.8877 8.78837 67.1797 8.55483C67.4716 8.30669 67.8 8.18262 68.1649 8.18262C68.4861 8.18262 68.7196 8.2556 68.8656 8.40156C69.0115 8.54753 69.0845 8.77377 69.0845 9.0803C69.0845 9.45981 69.0772 9.905 69.0626 10.4159C69.048 10.9122 69.0334 11.2917 69.0188 11.5544C68.975 12.2988 68.9531 13.0432 68.9531 13.7877C68.9531 14.5175 68.9386 15.0941 68.9094 15.5174C69.3473 14.8751 69.8435 14.4007 70.3982 14.0942C70.9675 13.7731 71.6316 13.6125 72.3906 13.6125C72.9453 13.6125 73.4562 13.8607 73.9233 14.3569C74.4049 14.8386 74.6969 15.3933 74.799 16.0209C74.8282 16.3421 74.8428 16.8164 74.8428 17.4441L74.8209 19.0424C74.8209 19.2905 74.8355 19.6774 74.8647 20.2028C74.8793 20.451 74.9596 20.7137 75.1056 20.991C75.2661 21.2684 75.4486 21.4727 75.6529 21.6041C75.8427 21.7209 75.9668 21.8376 76.0251 21.9544C76.0835 22.0712 76.1127 22.2025 76.1127 22.3485C76.1127 22.4945 76.047 22.6477 75.9157 22.8083C75.7843 22.9543 75.6164 23.0272 75.4121 23.0272Z" fill="#BACFD5"/>
<path d="M93.68 11.2041C93.8989 11.4668 94.0522 11.6785 94.1398 11.839C94.2274 11.9996 94.2712 12.1529 94.2712 12.2988C94.2712 12.474 94.1544 12.6783 93.9208 12.9119C93.7019 13.1454 93.4829 13.2622 93.264 13.2622C92.9721 13.2622 92.7385 13.2184 92.5634 13.1308C92.3882 13.0432 92.2422 12.9046 92.1255 12.7148C91.8481 12.2769 91.527 11.8901 91.1621 11.5544C90.7972 11.2041 90.3082 11.0289 89.6952 11.0289C89.0967 11.0289 88.4253 11.1676 87.6808 11.4449C86.9364 11.7223 86.3891 12.0653 86.0387 12.474C85.2505 13.4374 84.8564 14.7145 84.8564 16.3056C84.8564 17.5755 85.2505 18.6629 86.0387 19.5679C86.8707 20.5021 87.9217 20.9691 89.1916 20.9691C89.7754 20.9691 90.4104 20.867 91.0964 20.6626C91.7971 20.4437 92.3517 20.0934 92.7604 19.6117H92.7385C93.0013 19.3343 93.3297 19.1957 93.7238 19.1957C93.9573 19.1957 94.1763 19.2978 94.3806 19.5022C94.5996 19.7065 94.7091 19.9109 94.7091 20.1152C94.7091 20.3342 94.6726 20.5312 94.5996 20.7064C94.5412 20.867 94.4244 21.0494 94.2493 21.2538C93.6508 21.9106 92.8845 22.3704 91.9503 22.6331C91.0307 22.8813 89.9798 23.0054 88.7975 23.0054C87.8195 23.0054 86.878 22.7718 85.9731 22.3047C85.0827 21.8376 84.3455 21.2465 83.7617 20.5312C83.4698 20.108 83.1851 19.5022 82.9078 18.714C82.6451 17.9112 82.5137 17.2616 82.5137 16.7654C82.5137 15.4955 82.7034 14.2912 83.0829 13.1527C83.4771 11.9996 84.0609 11.08 84.8345 10.394C85.3454 9.9269 86.0825 9.57658 87.0459 9.34304C88.0093 9.10949 88.8924 8.99272 89.6952 8.99272C90.3374 8.99272 90.8848 9.0876 91.3373 9.27735C91.8044 9.45251 92.2058 9.69335 92.5415 9.99988C92.8772 10.2918 93.2567 10.6932 93.68 11.2041Z" fill="#BACFD5"/>
<path d="M105.275 15.9334C105.392 16.1377 105.487 16.4369 105.56 16.831C105.633 17.2105 105.669 17.5536 105.669 17.8601C105.669 18.2542 105.625 18.6921 105.538 19.1738C105.45 19.6555 105.37 20.0277 105.297 20.2904C104.29 22.1296 102.801 23.0491 100.83 23.0491C100.101 23.0491 99.3561 22.8083 98.5971 22.3266C97.8381 21.8449 97.3126 21.2903 97.0207 20.6626C96.6266 19.4219 96.4295 18.6264 96.4295 18.2761C96.4295 17.6922 96.5536 17.0719 96.8017 16.415C97.0644 15.7582 97.3929 15.1889 97.787 14.7072C98.0497 14.3715 98.5022 14.0869 99.1444 13.8534C99.7867 13.6052 100.371 13.4811 100.896 13.4811C101.918 13.4811 102.779 13.6782 103.48 14.0723C104.195 14.4518 104.793 15.0722 105.275 15.9334ZM103.37 19.4584C103.443 19.3124 103.48 18.8235 103.48 17.9915C103.48 17.5682 103.399 17.1522 103.239 16.7435C103.093 16.3348 102.874 15.9844 102.582 15.6925C102.553 15.6633 102.472 15.6195 102.341 15.5611C102.21 15.4882 102.027 15.4225 101.794 15.3641C101.575 15.2911 101.319 15.2546 101.027 15.2546C100.21 15.2546 99.6115 15.583 99.232 16.2399C98.8525 16.8967 98.6628 17.6411 98.6628 18.4731C98.6628 18.6045 98.7066 18.8745 98.7941 19.2832C98.8817 19.6919 98.9474 19.9547 98.9912 20.0715C99.108 20.2758 99.3415 20.5167 99.6918 20.794C100.057 21.0567 100.451 21.1881 100.874 21.1881C101.531 21.1881 102.049 21.0348 102.429 20.7283C102.823 20.4072 103.137 19.9839 103.37 19.4584Z" fill="#BACFD5"/>
<path d="M107.526 15.583C107.409 15.583 107.307 15.5392 107.219 15.4517C107.132 15.3495 107.088 15.2327 107.088 15.1014C107.088 14.6781 107.227 14.3569 107.504 14.138C107.781 13.9044 108.124 13.7877 108.533 13.7877C109.102 13.7877 109.591 13.9409 110 14.2475C110.423 14.5394 110.635 14.9627 110.635 15.5174C110.635 15.6633 110.606 16.218 110.548 17.1814C110.489 18.2907 110.46 19.0278 110.46 19.3927C110.46 19.9036 110.555 20.3196 110.745 20.6407C110.949 20.9472 111.263 21.1005 111.686 21.1005C112.503 21.1005 113.131 20.648 113.569 19.743C114.021 18.8235 114.321 17.6995 114.467 16.3712C114.525 15.7874 114.613 15.1743 114.729 14.5321C114.788 14.1818 114.868 13.9263 114.97 13.7658C115.072 13.6052 115.269 13.5249 115.561 13.5249C115.751 13.5249 115.97 13.5687 116.218 13.6563C116.481 13.7439 116.649 13.8607 116.722 14.0066C116.809 14.2256 116.853 14.4664 116.853 14.7291C116.853 15.0941 116.802 15.5684 116.7 16.1523C116.583 16.7362 116.503 17.3711 116.459 18.0571C116.43 18.6702 116.525 19.3124 116.744 19.9839C116.963 20.6553 117.276 21.0932 117.685 21.2976C118.152 21.5311 118.386 21.7428 118.386 21.9325C118.386 22.239 118.276 22.4799 118.057 22.655C117.838 22.8302 117.627 22.9178 117.422 22.9178C116.882 22.9178 116.393 22.7207 115.955 22.3266C115.532 21.9325 115.226 21.4435 115.036 20.8597C114.729 21.3268 114.43 21.7136 114.138 22.0201C113.861 22.312 113.503 22.5602 113.065 22.7645C112.627 22.9543 112.087 23.0491 111.445 23.0491C110.686 23.0491 109.993 22.7791 109.365 22.239C108.752 21.699 108.446 20.7721 108.446 19.4584C108.446 19.0935 108.453 18.7067 108.467 18.298C108.497 17.8893 108.511 17.5974 108.511 17.4222C108.555 16.8967 108.577 16.415 108.577 15.9771C108.577 15.8458 108.526 15.7363 108.424 15.6487C108.336 15.5611 108.234 15.5174 108.117 15.5174C108.03 15.5174 107.927 15.5319 107.811 15.5611C107.708 15.5757 107.614 15.583 107.526 15.583Z" fill="#BACFD5"/>
<path d="M129.917 21.2757C129.99 21.3049 130.107 21.3414 130.267 21.3851C130.428 21.4289 130.545 21.4727 130.618 21.5165C130.691 21.5603 130.727 21.626 130.727 21.7136C130.742 22.0639 130.61 22.3558 130.333 22.5894C130.07 22.8083 129.756 22.9178 129.392 22.9178C128.822 22.9178 128.377 22.7645 128.056 22.458C127.735 22.1515 127.501 21.6844 127.355 21.0567C127.297 20.8086 127.268 20.4656 127.268 20.0277C127.268 19.7795 127.282 19.3781 127.312 18.8235C127.341 18.2396 127.355 17.7725 127.355 17.4222C127.355 16.7945 127.29 16.3202 127.158 15.999C127.027 15.6633 126.713 15.4955 126.217 15.4955C125.706 15.4955 125.246 15.6998 124.837 16.1085C124.443 16.5172 124.108 17.1303 123.83 17.9477C123.451 19.0862 123.239 20.5969 123.195 22.4799C123.195 22.5821 123.086 22.7061 122.867 22.8521C122.663 22.9835 122.414 23.0491 122.122 23.0491C121.582 23.0491 121.247 22.7645 121.115 22.1952L121.093 21.823C121.093 21.6917 121.108 21.5384 121.137 21.3632C121.312 20.3415 121.4 19.4511 121.4 18.6921C121.4 18.3564 121.393 18.0936 121.378 17.9039L121.356 16.8748C121.356 16.5245 121.269 16.1888 121.093 15.8677C120.918 15.532 120.714 15.3641 120.48 15.3641C120.407 15.3641 120.305 15.3933 120.174 15.4517C120.042 15.4955 119.933 15.5174 119.845 15.5174C119.699 15.5174 119.539 15.4444 119.364 15.2984C119.203 15.1524 119.123 14.9992 119.123 14.8386C119.123 14.5321 119.225 14.2839 119.429 14.0942C119.648 13.919 119.86 13.7804 120.064 13.6782C120.283 13.576 120.531 13.5249 120.809 13.5249C121.042 13.5249 121.232 13.5468 121.378 13.5906C121.524 13.6344 121.721 13.7293 121.969 13.8752C122.115 13.9482 122.283 14.1526 122.473 14.4883C122.663 14.824 122.808 15.2984 122.911 15.9115C123.203 15.3714 123.692 14.8021 124.378 14.2037C124.888 13.7366 125.626 13.503 126.589 13.503C127.465 13.503 128.158 13.8242 128.669 14.4664C129.18 15.0941 129.435 15.9625 129.435 17.0719C129.435 17.2908 129.421 17.6484 129.392 18.1447C129.348 18.5388 129.326 18.9548 129.326 19.3927C129.326 20.4145 129.523 21.0421 129.917 21.2757Z" fill="#BACFD5"/>
<path d="M132.356 15.386C132.151 15.3568 131.983 15.2692 131.852 15.1232C131.735 14.9773 131.677 14.8021 131.677 14.5978C131.677 14.4956 131.699 14.3861 131.743 14.2694C131.801 14.1526 131.881 14.0504 131.983 13.9628C132.173 13.7731 132.684 13.6782 133.516 13.6782C133.633 13.1089 133.691 12.5324 133.691 11.9485C133.691 11.7296 133.684 11.5398 133.669 11.3792C133.655 11.2187 133.647 11.0946 133.647 11.007C133.647 10.6859 133.764 10.4451 133.998 10.2845C134.246 10.1239 134.523 10.0437 134.83 10.0437C135.209 10.0437 135.465 10.1385 135.596 10.3283C135.742 10.5181 135.815 10.8684 135.815 11.3792C135.815 12.1383 135.749 12.8827 135.618 13.6125C135.852 13.6125 136.173 13.5979 136.581 13.5687C137.136 13.5395 137.537 13.5249 137.786 13.5249C138.034 13.5249 138.245 13.5906 138.421 13.722C138.61 13.8388 138.705 14.0066 138.705 14.2256C138.705 14.7948 138.45 15.1305 137.939 15.2327C137.399 15.3641 136.559 15.4444 135.421 15.4736C135.377 16.0428 135.355 16.6632 135.355 17.3346C135.355 18.3856 135.421 19.2468 135.552 19.9182C135.64 20.3853 135.786 20.7283 135.99 20.9472C136.209 21.1516 136.53 21.2538 136.954 21.2538C137.202 21.2538 137.457 21.1881 137.72 21.0567C137.895 20.9545 138.056 20.9035 138.202 20.9035C138.406 20.9035 138.552 20.9691 138.639 21.1005C138.742 21.2319 138.793 21.407 138.793 21.626C138.793 22.0347 138.574 22.3777 138.136 22.655C137.698 22.9178 137.136 23.0491 136.45 23.0491C136.027 23.0491 135.596 22.947 135.158 22.7426C134.735 22.5383 134.377 22.2828 134.085 21.9763C134.042 21.9325 133.961 21.7647 133.845 21.4727C133.728 21.1808 133.626 20.867 133.538 20.5312C133.392 19.8452 133.319 18.8818 133.319 17.6411C133.319 17.1011 133.348 16.3785 133.407 15.4736L132.356 15.386Z" fill="#BACFD5"/>
<path d="M140.675 15.2765C140.296 15.0138 140.106 14.7364 140.106 14.4445C140.106 14.2402 140.193 14.0504 140.369 13.8752C140.544 13.7001 140.807 13.6125 141.157 13.6125C141.566 13.6125 141.93 13.722 142.252 13.9409C142.587 14.1453 142.821 14.4445 142.952 14.8386C143.288 14.4445 143.667 14.1307 144.091 13.8971C144.529 13.6636 144.974 13.5468 145.426 13.5468C145.966 13.5468 146.455 13.6928 146.893 13.9847C147.331 14.2767 147.55 14.6708 147.55 15.167C147.55 15.4444 147.426 15.729 147.178 16.0209C146.944 16.3129 146.704 16.4588 146.455 16.4588C146.324 16.4588 146.207 16.4296 146.105 16.3712C146.017 16.2983 145.908 16.1961 145.777 16.0647C145.631 15.9188 145.507 15.8166 145.404 15.7582C145.302 15.6852 145.185 15.6487 145.054 15.6487C144.821 15.6487 144.602 15.6852 144.397 15.7582C144.193 15.8312 144.054 15.9188 143.981 16.0209C143.748 16.3858 143.573 16.7143 143.456 17.0062C143.354 17.2981 143.303 17.6119 143.303 17.9477C143.303 18.1958 143.295 18.3929 143.281 18.5388L143.259 19.7868C143.259 19.9766 143.266 20.1882 143.281 20.4218C143.295 20.6553 143.31 20.8305 143.324 20.9472C143.368 21.3414 143.39 21.7209 143.39 22.0858C143.39 22.3339 143.295 22.5529 143.105 22.7426C142.916 22.9324 142.682 23.0272 142.405 23.0272C141.967 23.0272 141.646 22.947 141.441 22.7864C141.237 22.6112 141.135 22.2974 141.135 21.8449L141.113 20.4437C141.098 20.1663 141.091 19.7722 141.091 19.2614L141.113 17.8163C141.142 17.1157 141.157 16.5464 141.157 16.1085C141.157 15.9479 141.12 15.802 141.047 15.6706C140.989 15.5392 140.865 15.4079 140.675 15.2765Z" fill="#BACFD5"/>
<path d="M151.315 27.4281C150.775 27.4281 150.315 27.3332 149.936 27.1435C149.556 26.9683 149.271 26.7494 149.082 26.4866C148.907 26.2385 148.819 26.0195 148.819 25.8298C148.819 25.567 148.914 25.3335 149.104 25.1291C149.293 24.9394 149.505 24.8445 149.739 24.8445C149.87 24.8445 149.994 24.8883 150.111 24.9759C150.242 25.0635 150.322 25.1145 150.352 25.1291C150.425 25.1875 150.519 25.2751 150.636 25.3919C150.753 25.5232 150.87 25.5889 150.987 25.5889C151.322 25.5889 151.592 25.3773 151.797 24.954C152.001 24.5307 152.198 23.8447 152.388 22.8959C151.424 21.3049 150.512 19.6847 149.651 18.0352C148.79 16.3858 148.359 15.2692 148.359 14.6854C148.359 14.3204 148.491 14.0504 148.753 13.8752C149.016 13.7001 149.315 13.6125 149.651 13.6125C149.899 13.6125 150.096 13.6636 150.242 13.7658C150.388 13.8534 150.505 14.0212 150.592 14.2694C151.001 15.5101 151.417 16.6194 151.84 17.5974C152.264 18.5607 152.753 19.5314 153.307 20.5094C153.57 19.9255 153.884 18.9694 154.249 17.6411C154.468 16.8675 154.658 16.2399 154.818 15.7582C154.979 15.2619 155.161 14.8094 155.366 14.4007C155.497 14.138 155.657 13.9263 155.847 13.7658C156.052 13.6052 156.27 13.5249 156.504 13.5249C156.767 13.5249 157.037 13.6198 157.314 13.8096C157.606 13.9847 157.752 14.1964 157.752 14.4445C157.752 14.5175 157.701 14.6927 157.599 14.97C157.03 16.2399 156.526 17.466 156.088 18.6483C155.65 19.816 155.241 21.1005 154.862 22.5018C154.628 23.2462 154.38 23.9687 154.118 24.6694C153.855 25.3846 153.672 25.8298 153.57 26.0049C153.264 26.4136 152.935 26.7494 152.585 27.0121C152.235 27.2894 151.811 27.4281 151.315 27.4281Z" fill="#BACFD5"/>
<path d="M175.208 10.81C175.427 11.0727 175.58 11.2844 175.668 11.4449C175.755 11.6055 175.799 11.7588 175.799 11.9047C175.799 12.0799 175.682 12.2842 175.449 12.5178C175.23 12.7513 175.011 12.8681 174.792 12.8681C174.5 12.8681 174.266 12.8243 174.091 12.7367C173.916 12.6491 173.77 12.5105 173.653 12.3207C173.42 11.9704 173.135 11.6712 172.8 11.423C172.464 11.1603 171.938 11.0289 171.223 11.0289C170.61 11.0289 169.909 11.1676 169.121 11.4449C168.348 11.7223 167.793 12.0653 167.457 12.474C167.165 12.8389 166.91 13.3936 166.691 14.138C166.487 14.8824 166.384 15.6049 166.384 16.3056C166.384 17.1522 166.567 17.9331 166.932 18.6483C167.311 19.3489 167.851 19.9109 168.552 20.3342C169.267 20.7575 170.121 20.9691 171.114 20.9691C171.654 20.9691 172.208 20.867 172.778 20.6626C173.362 20.4437 173.865 20.0934 174.288 19.6117H174.266C174.529 19.3343 174.858 19.1957 175.252 19.1957C175.485 19.1957 175.704 19.2978 175.909 19.5022C176.128 19.7065 176.237 19.9109 176.237 20.1152C176.237 20.3342 176.201 20.5312 176.128 20.7064C176.069 20.867 175.952 21.0494 175.777 21.2538C175.179 21.9252 174.471 22.385 173.653 22.6331C172.836 22.8813 171.858 23.0054 170.72 23.0054C169.712 23.0054 168.691 22.7645 167.654 22.2828C166.633 21.8011 165.844 21.2173 165.29 20.5312C164.998 20.108 164.713 19.5022 164.436 18.714C164.173 17.9112 164.042 17.2616 164.042 16.7654C164.042 15.4955 164.231 14.2912 164.611 13.1527C165.005 11.9996 165.589 11.08 166.362 10.394C166.873 9.9269 167.61 9.57658 168.574 9.34304C169.537 9.10949 170.42 8.99272 171.223 8.99272C172.201 8.99272 172.967 9.13139 173.522 9.40872C174.091 9.67146 174.653 10.1385 175.208 10.81Z" fill="#BACFD5"/>
<path d="M180.629 19.5679C180.629 20.1225 180.709 20.5531 180.869 20.8597C181.045 21.1516 181.264 21.2976 181.526 21.2976C181.672 21.2976 181.811 21.2903 181.942 21.2757C182.074 21.2465 182.205 21.2319 182.336 21.2319C182.482 21.2319 182.606 21.3049 182.709 21.4508C182.825 21.5968 182.884 21.7574 182.884 21.9325C182.884 22.2828 182.716 22.5602 182.38 22.7645C182.059 22.9543 181.621 23.0491 181.067 23.0491C180.672 23.0491 180.271 22.9324 179.862 22.6988C179.468 22.4507 179.14 22.0712 178.877 21.5603C178.614 21.0348 178.483 20.3853 178.483 19.6117C178.483 17.9477 178.512 16.5391 178.571 15.386C178.643 14.0139 178.68 12.2842 178.68 10.1969C178.68 9.54009 178.716 9.0803 178.789 8.81756C178.877 8.61321 179.016 8.45995 179.205 8.35777C179.41 8.241 179.621 8.18262 179.84 8.18262C180.059 8.18262 180.249 8.21911 180.41 8.29209C180.585 8.36507 180.702 8.48184 180.76 8.64241C180.818 8.81756 180.855 8.99272 180.869 9.16788C180.899 9.32844 180.913 9.56199 180.913 9.86851C180.913 10.467 180.891 11.0435 180.848 11.5982C180.818 12.2696 180.804 12.7586 180.804 13.0651C180.687 15.6341 180.629 17.8017 180.629 19.5679Z" fill="#BACFD5"/>
<path d="M183.961 15.583C183.844 15.583 183.735 15.5392 183.633 15.4517C183.545 15.3495 183.501 15.2327 183.501 15.1014C183.501 14.7656 183.647 14.4518 183.939 14.1599C184.027 14.1161 184.202 14.0431 184.465 13.9409C184.727 13.8388 184.961 13.7877 185.165 13.7877C185.72 13.7877 186.172 13.9409 186.523 14.2475C186.873 14.5394 187.048 14.9627 187.048 15.5174C187.048 15.6779 187.019 16.0209 186.961 16.5464C186.902 17.1595 186.873 17.6338 186.873 17.9696C186.873 18.9913 187.012 19.816 187.289 20.4437C187.391 20.648 187.552 20.8086 187.771 20.9254C187.99 21.0421 188.187 21.1005 188.362 21.1005C188.785 21.1005 189.128 21.0275 189.391 20.8816C189.654 20.7356 189.938 20.5021 190.245 20.1809C190.551 19.8598 190.748 19.4949 190.836 19.0862C190.938 18.6775 191.011 18.1155 191.055 17.4003C191.084 16.9332 191.113 16.5902 191.143 16.3712C191.216 15.6706 191.252 15.0722 191.252 14.5759C191.252 14.2548 191.34 13.992 191.515 13.7877C191.69 13.5687 191.931 13.4592 192.237 13.4592C192.412 13.4592 192.609 13.5176 192.828 13.6344C193.062 13.7366 193.215 13.8607 193.288 14.0066C193.376 14.1526 193.42 14.3934 193.42 14.7291C193.42 14.9043 193.398 15.0722 193.354 15.2327C193.252 15.5976 193.201 16.0355 193.201 16.5464L193.223 17.6849C193.223 18.7213 193.296 19.4876 193.441 19.9839C193.514 20.2174 193.617 20.4583 193.748 20.7064C193.879 20.9399 194.003 21.137 194.12 21.2976C194.412 21.6187 194.602 21.8449 194.689 21.9763C194.777 22.0931 194.821 22.2098 194.821 22.3266C194.821 22.5018 194.733 22.6696 194.558 22.8302C194.398 22.9762 194.222 23.0491 194.033 23.0491C193.493 23.0491 193.025 22.8667 192.631 22.5018C192.237 22.1369 191.945 21.6625 191.756 21.0786C191.259 21.6479 190.8 22.1077 190.376 22.458C190.084 22.6623 189.727 22.8156 189.303 22.9178C188.88 23.0054 188.457 23.0491 188.033 23.0491C187.464 23.0491 186.888 22.8156 186.304 22.3485C185.72 21.8814 185.326 21.3414 185.121 20.7283C185.107 20.6991 185.063 20.5823 184.99 20.378C184.932 20.1736 184.903 19.8671 184.903 19.4584C184.903 18.9183 184.932 18.2396 184.99 17.4222C185.034 16.8967 185.056 16.415 185.056 15.9771C185.056 15.8458 185.005 15.7363 184.903 15.6487C184.815 15.5611 184.713 15.5174 184.596 15.5174C184.508 15.5174 184.406 15.5319 184.289 15.5611C184.187 15.5757 184.078 15.583 183.961 15.583Z" fill="#BACFD5"/>
<path d="M197.005 19.0205C197.005 18.2031 197.012 17.5828 197.026 17.1595L197.048 15.0795C197.048 14.2329 197.026 13.306 196.983 12.2988C196.968 11.9923 196.917 11.569 196.829 11.0289C196.713 10.2115 196.654 9.59848 196.654 9.18978C196.654 8.51834 196.99 8.18262 197.661 8.18262C198.085 8.18262 198.384 8.29939 198.559 8.53293C198.749 8.75188 198.88 9.1022 198.953 9.58388C199.099 10.591 199.172 11.7734 199.172 13.1308C199.172 13.5395 199.157 14.1526 199.128 14.97C199.406 14.5321 199.763 14.1891 200.201 13.9409C200.654 13.6928 201.099 13.5687 201.537 13.5687C202.807 13.5687 203.901 14.0942 204.821 15.1451C205.069 15.5101 205.288 15.9479 205.478 16.4588C205.682 16.9551 205.784 17.3857 205.784 17.7506C205.784 18.3929 205.711 18.984 205.565 19.5241C205.434 20.0642 205.193 20.5896 204.843 21.1005C204.493 21.6114 204.047 22.0274 203.507 22.3485C202.982 22.6696 202.369 22.8302 201.668 22.8302C201.055 22.8302 200.5 22.7061 200.004 22.458C199.522 22.2098 199.136 21.8814 198.844 21.4727C198.771 21.8376 198.61 22.2025 198.362 22.5675C198.114 22.9178 197.829 23.0929 197.508 23.0929C197.245 23.0929 197.026 23.0272 196.851 22.8959C196.676 22.7499 196.589 22.5383 196.589 22.2609C196.589 22.0566 196.632 21.8011 196.72 21.4946C196.807 21.0713 196.873 20.6845 196.917 20.3342C196.975 19.9693 197.005 19.5314 197.005 19.0205ZM201.121 21.0129C201.836 21.0129 202.434 20.7648 202.916 20.2685C203.398 19.7576 203.639 19.0716 203.639 18.2104C203.639 17.4222 203.427 16.7435 203.004 16.1742C202.858 15.9844 202.646 15.8312 202.369 15.7144C202.106 15.5976 201.843 15.5392 201.581 15.5392C200.967 15.5392 200.449 15.7217 200.026 16.0866C199.603 16.4369 199.362 16.9259 199.303 17.5536C199.245 18.4002 199.216 19.13 199.216 19.743C199.391 20.0788 199.654 20.378 200.004 20.6407C200.369 20.8889 200.741 21.0129 201.121 21.0129Z" fill="#BACFD5"/>
<path d="M13.3086 6.18262C13.3086 6.18262 7.70861 12.2774 7.70861 16.1826C7.70861 20.0879 13.3086 26.1826 13.3086 26.1826" stroke="#BACFD5" stroke-width="2.4" stroke-linecap="round"/>
<path d="M20.1094 6.18262C20.1094 6.18262 14.5094 12.2774 14.5094 16.1826C14.5094 20.0879 20.1094 26.1826 20.1094 26.1826" stroke="#BACFD5" stroke-width="2.4" stroke-linecap="round"/>
<path d="M26.9082 6.18262C26.9082 6.18262 21.3082 12.2774 21.3082 16.1826C21.3082 20.0879 26.9082 26.1826 26.9082 26.1826" stroke="#BACFD5" stroke-width="2.4" stroke-linecap="round"/>
<path d="M7.70898 15.7822H14.509" stroke="#BACFD5" stroke-width="2.4"/>
</svg>
