<svg width="177" height="36" viewBox="0 0 177 36" fill="none" xmlns="http://www.w3.org/2000/svg">
<path d="M55.309 21.9282V12.8918C55.309 12.6857 55.2726 12.5403 55.1999 12.4554C55.1393 12.3706 55.0241 12.3221 54.8544 12.31L53.709 12.1463V11.6736C53.8302 11.71 55.1029 11.7282 57.5272 11.7282C58.2423 11.7282 58.812 11.71 59.2363 11.6736V12.1645L58.0908 12.3282C57.9211 12.3403 57.7999 12.3827 57.7272 12.4554C57.6666 12.5282 57.6363 12.6736 57.6363 12.8918V21.9282C57.6363 22.1463 57.6666 22.2857 57.7272 22.3463C57.7878 22.4069 57.909 22.4433 58.0908 22.4554L59.2363 22.5463V23.1645C58.9938 23.1403 58.6423 23.1221 58.1817 23.11C57.7332 23.0979 57.1635 23.0918 56.4726 23.0918C55.7817 23.0918 55.206 23.0979 54.7453 23.11C54.2969 23.1221 53.9514 23.1403 53.709 23.1645V22.5463L54.8544 22.4554C55.0363 22.4312 55.1575 22.3888 55.2181 22.3282C55.2787 22.2676 55.309 22.1342 55.309 21.9282Z" fill="#BACFD5"/>
<path d="M69.1365 23.1463C68.5062 23.11 67.8032 23.0918 67.0275 23.0918C66.2638 23.0918 65.5668 23.11 64.9365 23.1463V22.6918L65.5729 22.5463C65.8396 22.51 65.9729 22.2736 65.9729 21.8373V18.7827C65.9729 18.516 65.9608 18.2857 65.9365 18.0918C65.9244 17.8857 65.882 17.716 65.8093 17.5827C65.7487 17.4373 65.6456 17.3342 65.5002 17.2736C65.3668 17.2009 65.179 17.1645 64.9365 17.1645C64.6578 17.1645 64.3608 17.2554 64.0456 17.4373C63.7426 17.6069 63.4881 17.813 63.282 18.0554V22.0373C63.282 22.2312 63.4275 22.3645 63.7184 22.4373L64.2456 22.6918V23.1463C64.0759 23.1221 63.9123 23.11 63.7547 23.11C63.5971 23.0979 63.4093 23.0918 63.1911 23.0918H62.082C61.6941 23.0918 61.3002 23.0979 60.9002 23.11C60.5123 23.11 60.2275 23.1221 60.0456 23.1463V22.6918L60.8275 22.51C60.9487 22.4857 61.0396 22.4312 61.1002 22.3463C61.1608 22.2615 61.1911 22.1342 61.1911 21.9645V18.3827C61.1911 18.0069 61.1123 17.7524 60.9547 17.6191C60.8093 17.4857 60.5426 17.3888 60.1547 17.3282V16.9827C60.3487 16.9342 60.5729 16.8736 60.8275 16.8009C61.0941 16.7282 61.3547 16.6373 61.6093 16.5282C61.8638 16.4069 62.1002 16.2676 62.3184 16.11C62.5365 15.9403 62.7002 15.7403 62.8093 15.51H63.282V17.2736C63.6456 16.8251 64.0396 16.4736 64.4638 16.2191C64.8881 15.9645 65.3123 15.8373 65.7365 15.8373C66.4396 15.8373 67.0032 16.0433 67.4275 16.4554C67.8517 16.8676 68.0638 17.4918 68.0638 18.3282V21.7827C68.0638 22.0251 68.0941 22.2009 68.1547 22.31C68.2153 22.4191 68.3365 22.4979 68.5184 22.5463L69.1365 22.6918V23.1463Z" fill="#BACFD5"/>
<path d="M79.9229 23.1645C79.729 23.1403 79.4381 23.1221 79.0502 23.11C78.6744 23.0979 78.2441 23.0918 77.7593 23.0918C77.2744 23.0918 76.8381 23.0979 76.4502 23.11C76.0623 23.1221 75.7775 23.1403 75.5956 23.1645V22.71L76.2865 22.51C76.6623 22.4373 76.8502 22.2191 76.8502 21.8554V17.6918C76.8502 17.4009 76.7774 17.1888 76.632 17.0554C76.5108 16.9463 76.2865 16.8494 75.9593 16.7645V16.8191L73.3229 16.8918V21.2918C73.3229 22.0191 73.5774 22.4251 74.0865 22.51L75.0865 22.6918V23.1463C74.3229 23.11 73.5168 23.0918 72.6684 23.0918H72.1047C71.6926 23.0918 71.2805 23.0979 70.8684 23.11C70.4562 23.11 70.1593 23.1221 69.9774 23.1463V22.71L70.5411 22.5827C70.7229 22.5463 70.8623 22.51 70.9593 22.4736C71.0562 22.4251 71.129 22.3645 71.1775 22.2918C71.2259 22.2069 71.2562 22.0979 71.2684 21.9645C71.2805 21.8312 71.2865 21.6554 71.2865 21.4373V17.11C71.0562 17.0615 70.6138 17.0251 69.9593 17.0009V16.7282C70.2502 16.6069 70.4805 16.5039 70.6502 16.4191C70.8199 16.3221 70.9471 16.2373 71.032 16.1645C71.129 16.0918 71.1896 16.0191 71.2138 15.9463C71.2381 15.8736 71.2502 15.7948 71.2502 15.71C71.2502 15.6009 71.2623 15.413 71.2865 15.1463C71.3108 14.8676 71.3653 14.5585 71.4502 14.2191C71.5471 13.8676 71.6805 13.51 71.8502 13.1463C72.0199 12.7827 72.2441 12.4494 72.5229 12.1463C72.8138 11.8433 73.1653 11.5948 73.5774 11.4009C73.9896 11.1948 74.4865 11.0918 75.0684 11.0918C75.1653 11.0918 75.2562 11.0979 75.3411 11.11C75.4381 11.11 75.535 11.116 75.632 11.1282C76.0199 11.1888 76.3532 11.2979 76.632 11.4554C76.9108 11.613 77.0502 11.8615 77.0502 12.2009C77.0502 12.5403 76.9593 12.813 76.7775 13.0191C76.6078 13.2251 76.3532 13.3282 76.0138 13.3282C75.7471 13.3282 75.529 13.2615 75.3593 13.1282C75.2017 12.9827 75.0623 12.8312 74.9411 12.6736C74.832 12.5039 74.735 12.3524 74.6502 12.2191C74.5653 12.0736 74.4805 12.0009 74.3956 12.0009C74.0805 12.0009 73.8441 12.0918 73.6865 12.2736C73.5411 12.4433 73.432 12.6676 73.3593 12.9463C73.2987 13.213 73.2684 13.516 73.2684 13.8554V15.6736C73.2684 15.8797 73.2744 16.0312 73.2865 16.1282L75.9593 16.1827V16.2554L76.4502 16.0918C76.7168 15.9948 76.9774 15.8918 77.232 15.7827C77.4865 15.6615 77.7168 15.5342 77.9229 15.4009C78.1411 15.2554 78.3108 15.11 78.432 14.9645C78.5168 14.9645 78.5956 14.9706 78.6684 14.9827C78.7411 14.9827 78.8199 14.9827 78.9047 14.9827V21.91C78.9047 22.0918 78.929 22.2251 78.9774 22.31C79.0381 22.3948 79.1471 22.4554 79.3047 22.4918L79.9229 22.71V23.1645Z" fill="#BACFD5"/>
<path d="M89.8397 23.1463C89.2094 23.11 88.5063 23.0918 87.7306 23.0918C86.9669 23.0918 86.27 23.11 85.6397 23.1463V22.6918L86.276 22.5463C86.5427 22.51 86.676 22.2736 86.676 21.8373V18.7827C86.676 18.516 86.6639 18.2857 86.6397 18.0918C86.6275 17.8857 86.5851 17.716 86.5124 17.5827C86.4518 17.4373 86.3488 17.3342 86.2033 17.2736C86.07 17.2009 85.8821 17.1645 85.6397 17.1645C85.3609 17.1645 85.0639 17.2554 84.7488 17.4373C84.4457 17.6069 84.1912 17.813 83.9851 18.0554V22.0373C83.9851 22.2312 84.1306 22.3645 84.4215 22.4373L84.9488 22.6918V23.1463C84.7791 23.1221 84.6154 23.11 84.4578 23.11C84.3003 23.0979 84.1124 23.0918 83.8942 23.0918H82.7851C82.3972 23.0918 82.0033 23.0979 81.6033 23.11C81.2154 23.11 80.9306 23.1221 80.7488 23.1463V22.6918L81.5306 22.51C81.6518 22.4857 81.7427 22.4312 81.8033 22.3463C81.8639 22.2615 81.8942 22.1342 81.8942 21.9645V18.3827C81.8942 18.0069 81.8154 17.7524 81.6578 17.6191C81.5124 17.4857 81.2457 17.3888 80.8578 17.3282V16.9827C81.0518 16.9342 81.276 16.8736 81.5306 16.8009C81.7972 16.7282 82.0578 16.6373 82.3124 16.5282C82.5669 16.4069 82.8033 16.2676 83.0215 16.11C83.2397 15.9403 83.4033 15.7403 83.5124 15.51H83.9851V17.2736C84.3488 16.8251 84.7427 16.4736 85.1669 16.2191C85.5912 15.9645 86.0154 15.8373 86.4397 15.8373C87.1427 15.8373 87.7063 16.0433 88.1306 16.4554C88.5548 16.8676 88.7669 17.4918 88.7669 18.3282V21.7827C88.7669 22.0251 88.7972 22.2009 88.8578 22.31C88.9185 22.4191 89.0397 22.4979 89.2215 22.5463L89.8397 22.6918V23.1463Z" fill="#BACFD5"/>
<path d="M92.8988 11.91C93.2139 11.91 93.4806 12.0312 93.6988 12.2736C93.9291 12.5039 94.0442 12.7766 94.0442 13.0918C94.0442 13.3706 93.9291 13.6251 93.6988 13.8554C93.4806 14.0857 93.2078 14.2009 92.8806 14.2009C92.5654 14.2009 92.2988 14.0979 92.0806 13.8918C91.8745 13.6736 91.7715 13.4069 91.7715 13.0918C91.7715 12.7766 91.8806 12.5039 92.0988 12.2736C92.3169 12.0312 92.5836 11.91 92.8988 11.91ZM94.7351 23.1645C94.5412 23.1403 94.2503 23.1221 93.8624 23.11C93.4745 23.0979 93.0382 23.0918 92.5533 23.0918C92.0685 23.0918 91.6321 23.0979 91.2442 23.11C90.8563 23.1221 90.5654 23.1403 90.3715 23.1645V22.6918L91.0624 22.51C91.4382 22.4373 91.626 22.213 91.626 21.8373V18.5645C91.626 18.2736 91.5533 18.0615 91.4078 17.9282C91.2624 17.7948 90.9715 17.6797 90.5351 17.5827V17.1463C90.7412 17.0979 90.9775 17.0312 91.2442 16.9463C91.5109 16.8494 91.7715 16.7463 92.026 16.6373C92.2806 16.516 92.5169 16.3888 92.7351 16.2554C92.9533 16.11 93.123 15.9645 93.2442 15.8191C93.3291 15.8191 93.4078 15.8251 93.4806 15.8373C93.5533 15.8373 93.6321 15.8373 93.7169 15.8373V21.8918C93.7169 22.0736 93.7412 22.213 93.7897 22.31C93.8503 22.3948 93.9594 22.4554 94.1169 22.4918L94.7351 22.6918V23.1645Z" fill="#BACFD5"/>
<path d="M98.4319 14.3282H98.8319C98.8319 14.6554 98.8319 14.9827 98.8319 15.31C98.844 15.6251 98.85 15.9463 98.85 16.2736L101.123 16.2191V17.0736L98.85 17.1463V20.4191C98.85 20.9645 98.9167 21.3645 99.05 21.6191C99.1834 21.8615 99.4622 21.9827 99.8864 21.9827C100.068 21.9827 100.268 21.9645 100.486 21.9282C100.705 21.8797 100.941 21.7463 101.195 21.5282L101.359 21.7827C101.274 21.9524 101.159 22.1342 101.014 22.3282C100.868 22.51 100.686 22.6797 100.468 22.8373C100.262 22.9948 100.026 23.1282 99.7591 23.2373C99.4925 23.3342 99.1894 23.3827 98.85 23.3827C98.1591 23.3827 97.644 23.213 97.3046 22.8736C96.9652 22.5221 96.7955 21.9282 96.7955 21.0918V17.1827C96.6258 17.1827 96.4622 17.1888 96.3046 17.2009C96.147 17.2009 95.9834 17.2009 95.8137 17.2009C95.644 17.2009 95.5531 17.1221 95.5409 16.9645C95.5409 16.8069 95.6258 16.6918 95.7955 16.6191C96.0622 16.51 96.3046 16.3948 96.5228 16.2736C96.7531 16.1524 96.9409 16.0312 97.0864 15.91C97.2561 15.7766 97.4803 15.5766 97.7591 15.31C98.05 15.0433 98.2743 14.716 98.4319 14.3282Z" fill="#BACFD5"/>
<path d="M105.495 25.1827C105.277 25.7282 104.956 26.1221 104.531 26.3645C104.119 26.6069 103.677 26.7282 103.204 26.7282C103.071 26.7282 102.937 26.71 102.804 26.6736C102.671 26.6494 102.556 26.6009 102.459 26.5282C102.374 26.4676 102.301 26.3888 102.24 26.2918C102.192 26.2069 102.168 26.1039 102.168 25.9827C102.168 25.6433 102.259 25.4191 102.44 25.31C102.622 25.213 102.84 25.1645 103.095 25.1645C103.349 25.1645 103.61 25.1948 103.877 25.2554C104.143 25.3282 104.343 25.3645 104.477 25.3645C104.537 25.3645 104.61 25.3342 104.695 25.2736C104.78 25.213 104.865 25.1282 104.949 25.0191C105.034 24.9221 105.101 24.8009 105.149 24.6554C105.21 24.51 105.24 24.3524 105.24 24.1827C105.24 24.0373 105.21 23.8433 105.149 23.6009C105.089 23.3948 105.016 23.1888 104.931 22.9827C104.859 22.7766 104.786 22.5888 104.713 22.4191L102.331 17.1827C102.198 16.8918 102.04 16.716 101.859 16.6554L101.495 16.5282V16.0736C103.034 16.1948 104.313 16.1948 105.331 16.0736V16.5282C105.004 16.5282 104.828 16.5585 104.804 16.6191C104.78 16.6797 104.792 16.7706 104.84 16.8918L106.495 21.0918L107.931 17.5463C107.992 17.3766 108.016 17.2009 108.004 17.0191C108.004 16.8373 107.901 16.7221 107.695 16.6736L106.677 16.4373V16.0736C107.743 16.1948 108.859 16.1948 110.022 16.0736V16.4373L109.44 16.5827C109.343 16.6069 109.259 16.6433 109.186 16.6918C109.125 16.7282 109.059 16.7888 108.986 16.8736C108.925 16.9463 108.859 17.0554 108.786 17.2009C108.725 17.3342 108.652 17.51 108.568 17.7282L105.495 25.1827Z" fill="#BACFD5"/>
<path d="M114.858 11.7282C115.452 11.7282 115.949 11.7282 116.349 11.7282C116.749 11.716 117.052 11.7039 117.258 11.6918L119.895 11.5463C120.125 11.5342 120.283 11.5282 120.367 11.5282C120.464 11.5282 120.537 11.5282 120.586 11.5282C121.155 11.5282 121.689 11.5948 122.186 11.7282C122.683 11.8494 123.113 12.0494 123.476 12.3282C123.84 12.5948 124.125 12.9403 124.331 13.3645C124.549 13.7888 124.658 14.2918 124.658 14.8736C124.658 15.4069 124.549 15.8736 124.331 16.2736C124.125 16.6736 123.846 17.013 123.495 17.2918C123.155 17.5585 122.761 17.7585 122.313 17.8918C121.876 18.0251 121.434 18.0918 120.986 18.0918C120.634 18.0918 120.325 18.0433 120.058 17.9463C119.792 17.8494 119.543 17.6857 119.313 17.4554L119.349 17.2918C119.507 17.3524 119.676 17.3948 119.858 17.4191C120.04 17.4312 120.198 17.4373 120.331 17.4373C120.634 17.4373 120.907 17.3948 121.149 17.31C121.404 17.2251 121.622 17.0918 121.804 16.91C121.986 16.716 122.125 16.4615 122.222 16.1463C122.331 15.8312 122.386 15.4373 122.386 14.9645C122.386 14.1645 122.186 13.516 121.786 13.0191C121.398 12.51 120.786 12.2554 119.949 12.2554C119.779 12.2554 119.634 12.2615 119.513 12.2736C119.404 12.2736 119.301 12.2797 119.204 12.2918C119.107 12.3039 119.022 12.3221 118.949 12.3463C118.889 12.3585 118.828 12.3766 118.767 12.4009V21.7282C118.767 21.91 118.804 22.0676 118.876 22.2009C118.961 22.3221 119.137 22.4069 119.404 22.4554L120.495 22.6554V23.1645C119.986 23.1403 119.501 23.1221 119.04 23.11C118.592 23.0979 118.204 23.0918 117.876 23.0918C117.501 23.0918 117.113 23.0979 116.713 23.11C116.325 23.1221 115.828 23.1342 115.222 23.1463V22.6373L116.24 22.4373C116.422 22.4009 116.543 22.3342 116.604 22.2373C116.664 22.1403 116.695 21.9766 116.695 21.7463V13.5463C116.695 13.0857 116.549 12.7766 116.258 12.6191C115.979 12.4615 115.513 12.3463 114.858 12.2736V11.7282Z" fill="#BACFD5"/>
<path d="M128.408 23.3645C127.911 23.3645 127.481 23.2797 127.117 23.11C126.766 22.9282 126.475 22.6857 126.244 22.3827C126.026 22.0797 125.863 21.7221 125.754 21.31C125.644 20.8979 125.59 20.4554 125.59 19.9827C125.59 19.3403 125.687 18.7706 125.881 18.2736C126.075 17.7766 126.335 17.3585 126.663 17.0191C126.99 16.6797 127.372 16.4251 127.808 16.2554C128.244 16.0736 128.705 15.9827 129.19 15.9827C129.529 15.9827 129.826 16.0069 130.081 16.0554C130.335 16.1039 130.548 16.1585 130.717 16.2191C130.935 16.2797 131.105 16.3524 131.226 16.4373L132.426 15.7645L132.59 15.8191V21.4191C132.59 21.8918 132.796 22.1221 133.208 22.11C133.305 22.11 133.378 22.0979 133.426 22.0736C133.487 22.0373 133.541 22.0069 133.59 21.9827C133.626 21.9585 133.669 21.9221 133.717 21.8736L133.826 22.1282C133.741 22.3585 133.614 22.5645 133.444 22.7463C133.311 22.9039 133.129 23.0494 132.899 23.1827C132.681 23.3039 132.408 23.3645 132.081 23.3645C131.535 23.3645 131.154 23.2069 130.935 22.8918C130.717 22.5645 130.608 22.1706 130.608 21.71V21.2736C130.548 21.5403 130.463 21.8009 130.354 22.0554C130.244 22.2979 130.099 22.516 129.917 22.71C129.748 22.9039 129.535 23.0615 129.281 23.1827C129.038 23.3039 128.748 23.3645 128.408 23.3645ZM130.608 19.1827C130.608 18.9282 130.596 18.6615 130.572 18.3827C130.548 18.1039 130.493 17.8494 130.408 17.6191C130.323 17.3766 130.19 17.1766 130.008 17.0191C129.838 16.8615 129.602 16.7827 129.299 16.7827C129.129 16.7827 128.948 16.8312 128.754 16.9282C128.572 17.013 128.402 17.1585 128.244 17.3645C128.087 17.5706 127.954 17.8554 127.844 18.2191C127.748 18.5706 127.699 19.0069 127.699 19.5282C127.699 19.8918 127.723 20.2373 127.772 20.5645C127.832 20.8918 127.923 21.1766 128.044 21.4191C128.166 21.6615 128.311 21.8554 128.481 22.0009C128.663 22.1342 128.875 22.2009 129.117 22.2009C129.348 22.2009 129.554 22.1221 129.735 21.9645C129.929 21.8069 130.087 21.6009 130.208 21.3463C130.341 21.0797 130.438 20.7766 130.499 20.4373C130.572 20.0979 130.608 19.7463 130.608 19.3827V19.1827Z" fill="#BACFD5"/>
<path d="M134.64 23.1645V22.8736L135.185 22.71C135.428 22.6373 135.579 22.5463 135.64 22.4373C135.713 22.316 135.749 22.0979 135.749 21.7827V18.2918C135.749 18.0494 135.7 17.8676 135.603 17.7463C135.506 17.6251 135.276 17.5403 134.913 17.4918L134.603 17.4554V17.11C134.834 17.0494 135.082 16.9706 135.349 16.8736C135.628 16.7645 135.894 16.6433 136.149 16.51C136.416 16.3645 136.658 16.2009 136.876 16.0191C137.106 15.8373 137.294 15.6373 137.44 15.4191H137.767C137.767 15.7706 137.773 16.0979 137.785 16.4009C137.797 16.7039 137.816 17.0554 137.84 17.4554C137.937 17.2494 138.028 17.0676 138.113 16.91C138.21 16.7524 138.355 16.5585 138.549 16.3282C138.731 16.11 138.919 15.9766 139.113 15.9282C139.306 15.8676 139.482 15.8373 139.64 15.8373C139.943 15.8373 140.21 15.9282 140.44 16.11C140.67 16.2918 140.785 16.5948 140.785 17.0191C140.785 17.4069 140.7 17.7221 140.531 17.9645C140.361 18.1948 140.106 18.31 139.767 18.31C139.597 18.31 139.452 18.2615 139.331 18.1645C139.222 18.0676 139.125 17.9645 139.04 17.8554C138.955 17.7463 138.876 17.6433 138.803 17.5463C138.743 17.4494 138.676 17.4009 138.603 17.4009C138.434 17.4009 138.282 17.516 138.149 17.7463C138.028 17.9766 137.943 18.2615 137.894 18.6009C137.834 18.8918 137.816 19.1221 137.84 19.2918V21.8191C137.84 22.0979 137.894 22.2857 138.003 22.3827C138.113 22.4797 138.331 22.5766 138.658 22.6736L139.258 22.8554V23.1463C138.991 23.1221 138.688 23.11 138.349 23.11C138.01 23.0979 137.688 23.0918 137.385 23.0918H136.967C136.567 23.0918 136.167 23.0979 135.767 23.11C135.367 23.1221 134.991 23.1403 134.64 23.1645Z" fill="#BACFD5"/>
<path d="M150.798 23.1645C150.568 23.1403 150.24 23.1221 149.816 23.11C149.404 23.0979 148.986 23.0918 148.562 23.0918C148.137 23.0918 147.731 23.0979 147.343 23.11C146.968 23.1221 146.665 23.1403 146.434 23.1645V22.6918L146.925 22.6191C147.192 22.5827 147.325 22.5282 147.325 22.4554C147.325 22.3585 147.222 22.1706 147.016 21.8918C146.822 21.613 146.531 21.2191 146.143 20.71C145.949 20.4676 145.755 20.2554 145.562 20.0736C145.38 19.8797 145.198 19.7827 145.016 19.7827H144.852V21.8191C144.852 22.1221 144.883 22.316 144.943 22.4009C145.016 22.4736 145.137 22.5282 145.307 22.5645L145.816 22.6918V23.1645C145.719 23.1524 145.586 23.1403 145.416 23.1282C145.259 23.116 145.077 23.11 144.871 23.11C144.677 23.0979 144.471 23.0918 144.252 23.0918C144.046 23.0918 143.846 23.0918 143.652 23.0918C143.265 23.0918 142.871 23.0979 142.471 23.11C142.071 23.1221 141.774 23.1403 141.58 23.1645V22.6918L142.252 22.5827C142.471 22.5463 142.61 22.4918 142.671 22.4191C142.731 22.3342 142.762 22.1342 142.762 21.8191V13.1463C142.762 13.0009 142.749 12.8857 142.725 12.8009C142.701 12.716 142.646 12.6494 142.562 12.6009C142.489 12.5403 142.38 12.4918 142.234 12.4554C142.089 12.4191 141.889 12.3827 141.634 12.3463V11.91C141.792 11.8736 141.998 11.8312 142.252 11.7827C142.519 11.7342 142.792 11.6797 143.071 11.6191C143.362 11.5463 143.64 11.4676 143.907 11.3827C144.174 11.2979 144.392 11.2009 144.562 11.0918H144.852V19.11C144.974 19.11 145.083 19.0979 145.18 19.0736C145.289 19.0373 145.398 18.9827 145.507 18.91C145.616 18.8373 145.737 18.7463 145.871 18.6373C146.004 18.516 146.174 18.3706 146.38 18.2009C146.792 17.8736 147.077 17.6433 147.234 17.51C147.392 17.3645 147.471 17.2373 147.471 17.1282C147.471 16.8736 147.083 16.6918 146.307 16.5827V16.1645H150.18V16.5827C149.755 16.6312 149.349 16.7342 148.962 16.8918C148.586 17.0373 148.24 17.2554 147.925 17.5463L146.78 18.4373C147.034 18.7645 147.313 19.1342 147.616 19.5463C147.919 19.9585 148.216 20.3585 148.507 20.7463C148.81 21.1342 149.101 21.4857 149.38 21.8009C149.671 22.1039 149.925 22.316 150.143 22.4373C150.204 22.4736 150.259 22.5039 150.307 22.5282C150.368 22.5403 150.422 22.5585 150.471 22.5827L150.798 22.6918V23.1645Z" fill="#BACFD5"/>
<path d="M157.899 18.8191H153.39C153.366 18.9403 153.347 19.013 153.335 19.0373C153.335 19.0615 153.335 19.1342 153.335 19.2554C153.335 19.6433 153.39 20.0009 153.499 20.3282C153.608 20.6433 153.76 20.9221 153.953 21.1645C154.16 21.3948 154.402 21.5766 154.681 21.71C154.96 21.8433 155.275 21.91 155.626 21.91C156.05 21.91 156.438 21.8554 156.79 21.7463C157.153 21.6251 157.535 21.3706 157.935 20.9827L158.008 21.2554C157.863 21.5342 157.693 21.8009 157.499 22.0554C157.317 22.31 157.093 22.5342 156.826 22.7282C156.56 22.9221 156.244 23.0797 155.881 23.2009C155.529 23.3221 155.111 23.3827 154.626 23.3827C154.117 23.3827 153.65 23.2979 153.226 23.1282C152.802 22.9463 152.438 22.6918 152.135 22.3645C151.844 22.0373 151.614 21.6433 151.444 21.1827C151.287 20.7221 151.208 20.2069 151.208 19.6373C151.208 19.0676 151.293 18.5524 151.463 18.0918C151.644 17.6191 151.893 17.2191 152.208 16.8918C152.535 16.5524 152.929 16.2918 153.39 16.11C153.85 15.9282 154.366 15.8373 154.935 15.8373C155.456 15.8373 155.899 15.916 156.263 16.0736C156.626 16.2312 156.923 16.4494 157.153 16.7282C157.396 16.9948 157.572 17.31 157.681 17.6736C157.802 18.0373 157.875 18.4191 157.899 18.8191ZM153.481 18.1463H155.19C155.517 18.1463 155.681 17.9888 155.681 17.6736C155.681 17.3221 155.626 17.0251 155.517 16.7827C155.408 16.5282 155.19 16.4009 154.863 16.4009C154.172 16.4009 153.711 16.9827 153.481 18.1463Z" fill="#BACFD5"/>
<path d="M158.912 23.1645V22.8736L159.457 22.71C159.7 22.6373 159.851 22.5463 159.912 22.4373C159.985 22.316 160.021 22.0979 160.021 21.7827V18.2918C160.021 18.0494 159.972 17.8676 159.875 17.7463C159.778 17.6251 159.548 17.5403 159.185 17.4918L158.875 17.4554V17.11C159.106 17.0494 159.354 16.9706 159.621 16.8736C159.9 16.7645 160.166 16.6433 160.421 16.51C160.688 16.3645 160.93 16.2009 161.148 16.0191C161.378 15.8373 161.566 15.6373 161.712 15.4191H162.039C162.039 15.7706 162.045 16.0979 162.057 16.4009C162.069 16.7039 162.088 17.0554 162.112 17.4554C162.209 17.2494 162.3 17.0676 162.385 16.91C162.482 16.7524 162.627 16.5585 162.821 16.3282C163.003 16.11 163.191 15.9766 163.385 15.9282C163.578 15.8676 163.754 15.8373 163.912 15.8373C164.215 15.8373 164.482 15.9282 164.712 16.11C164.942 16.2918 165.057 16.5948 165.057 17.0191C165.057 17.4069 164.972 17.7221 164.803 17.9645C164.633 18.1948 164.378 18.31 164.039 18.31C163.869 18.31 163.724 18.2615 163.603 18.1645C163.494 18.0676 163.397 17.9645 163.312 17.8554C163.227 17.7463 163.148 17.6433 163.075 17.5463C163.015 17.4494 162.948 17.4009 162.875 17.4009C162.706 17.4009 162.554 17.516 162.421 17.7463C162.3 17.9766 162.215 18.2615 162.166 18.6009C162.106 18.8918 162.088 19.1221 162.112 19.2918V21.8191C162.112 22.0979 162.166 22.2857 162.275 22.3827C162.385 22.4797 162.603 22.5766 162.93 22.6736L163.53 22.8554V23.1463C163.263 23.1221 162.96 23.11 162.621 23.11C162.282 23.0979 161.96 23.0918 161.657 23.0918H161.239C160.839 23.0918 160.439 23.0979 160.039 23.11C159.639 23.1221 159.263 23.1403 158.912 23.1645Z" fill="#BACFD5"/>
<path d="M21.459 9.18262C15.7277 9.18262 12.709 13.6014 12.709 17.9326C12.709 22.2639 15.7277 26.6826 21.459 26.6826C24.9152 26.6826 27.6715 24.2326 30.209 21.3451C32.7465 24.2326 35.4152 26.6826 38.959 26.6826C44.6902 26.6826 47.709 22.2639 47.709 17.9326C47.709 13.6014 44.6902 9.18262 38.959 9.18262C35.4152 9.18262 32.7465 11.6326 30.209 14.5201C27.6715 11.6326 24.9152 9.18262 21.459 9.18262ZM21.459 13.5576C23.2965 13.5576 25.309 15.6139 27.3215 17.9326C25.309 20.2514 23.2965 22.3076 21.459 22.3076C18.2215 22.3076 17.084 19.9451 17.084 17.9326C17.084 15.9201 18.2215 13.5576 21.459 13.5576V13.5576ZM38.959 13.5576C42.1965 13.5576 43.334 15.9201 43.334 17.9326C43.334 19.9451 42.1965 22.3076 38.959 22.3076C37.0777 22.3076 35.0652 20.2514 33.0965 17.9326C35.109 15.6139 37.0777 13.5576 38.959 13.5576Z" fill="#BACFD5"/>
<path d="M23.709 17.6826C23.709 17.6826 22.8136 19.1826 21.709 19.1826C20.6044 19.1826 19.709 18.511 19.709 17.6826C19.709 16.8542 20.6044 16.1826 21.709 16.1826C22.8136 16.1826 23.709 17.6826 23.709 17.6826Z" fill="#BACFD5"/>
<path d="M36.709 17.6826C36.709 17.6826 37.6044 16.1826 38.709 16.1826C39.8136 16.1826 40.709 16.8542 40.709 17.6826C40.709 18.511 39.8136 19.1826 38.709 19.1826C37.6044 19.1826 36.709 17.6826 36.709 17.6826Z" fill="#BACFD5"/>
</svg>
