<svg width="175" height="48" viewBox="0 0 175 48" fill="none" xmlns="http://www.w3.org/2000/svg">
<path d="M63.209 34.2458V14.0858H67.0106V22.0922H67.529L74.0666 14.0858H78.9338L70.5242 24.0218L79.2218 34.2458H74.2106L67.529 26.0666H67.0106V34.2458H63.209Z" fill="#BACFD5"/>
<path d="M81.3523 34.2458V19.961H84.9811V34.2458H81.3523ZM83.1667 18.2906C82.5139 18.2906 81.9571 18.0794 81.4963 17.657C81.0547 17.2346 80.8339 16.6778 80.8339 15.9866C80.8339 15.2954 81.0547 14.7386 81.4963 14.3162C81.9571 13.8938 82.5139 13.6826 83.1667 13.6826C83.8387 13.6826 84.3955 13.8938 84.8371 14.3162C85.2787 14.7386 85.4995 15.2954 85.4995 15.9866C85.4995 16.6778 85.2787 17.2346 84.8371 17.657C84.3955 18.0794 83.8387 18.2906 83.1667 18.2906Z" fill="#BACFD5"/>
<path d="M89.0023 34.2458V19.961H92.5735V21.833H93.0919C93.3223 21.3338 93.7543 20.8634 94.3879 20.4218C95.0215 19.961 95.9815 19.7306 97.2679 19.7306C98.3815 19.7306 99.3511 19.9898 100.177 20.5082C101.022 21.0074 101.674 21.7082 102.135 22.6106C102.596 23.4938 102.826 24.5306 102.826 25.721V34.2458H99.1975V26.009C99.1975 24.9338 98.9287 24.1274 98.3911 23.5898C97.8727 23.0522 97.1239 22.7834 96.1447 22.7834C95.0311 22.7834 94.1671 23.1578 93.5527 23.9066C92.9383 24.6362 92.6311 25.6634 92.6311 26.9882V34.2458H89.0023Z" fill="#BACFD5"/>
<path d="M113.258 34.649C111.837 34.649 110.58 34.3514 109.485 33.7562C108.41 33.1418 107.565 32.2874 106.951 31.193C106.356 30.0794 106.058 28.7738 106.058 27.2762V26.9306C106.058 25.433 106.356 24.137 106.951 23.0426C107.546 21.929 108.381 21.0746 109.456 20.4794C110.532 19.865 111.78 19.5578 113.2 19.5578C114.602 19.5578 115.821 19.8746 116.858 20.5082C117.895 21.1226 118.701 21.9866 119.277 23.1002C119.853 24.1946 120.141 25.4714 120.141 26.9306V28.169H109.744C109.783 29.1482 110.148 29.945 110.839 30.5594C111.53 31.1738 112.375 31.481 113.373 31.481C114.391 31.481 115.14 31.2602 115.62 30.8186C116.1 30.377 116.464 29.8874 116.714 29.3498L119.68 30.905C119.412 31.4042 119.018 31.9514 118.5 32.5466C118 33.1226 117.328 33.6218 116.484 34.0442C115.639 34.4474 114.564 34.649 113.258 34.649ZM109.773 25.4618H116.455C116.378 24.6362 116.042 23.9738 115.447 23.4746C114.871 22.9754 114.112 22.7258 113.172 22.7258C112.192 22.7258 111.415 22.9754 110.839 23.4746C110.263 23.9738 109.908 24.6362 109.773 25.4618Z" fill="#BACFD5"/>
<path d="M128.365 34.2458C127.424 34.2458 126.656 33.9578 126.061 33.3818C125.485 32.7866 125.197 31.9994 125.197 31.0202V22.9562H121.626V19.961H125.197V15.5258H128.826V19.961H132.743V22.9562H128.826V30.3866C128.826 30.9626 129.095 31.2506 129.632 31.2506H132.397V34.2458H128.365Z" fill="#BACFD5"/>
<path d="M136.027 34.2458V19.961H139.656V34.2458H136.027ZM137.842 18.2906C137.189 18.2906 136.632 18.0794 136.171 17.657C135.73 17.2346 135.509 16.6778 135.509 15.9866C135.509 15.2954 135.73 14.7386 136.171 14.3162C136.632 13.8938 137.189 13.6826 137.842 13.6826C138.514 13.6826 139.071 13.8938 139.512 14.3162C139.954 14.7386 140.175 15.2954 140.175 15.9866C140.175 16.6778 139.954 17.2346 139.512 17.657C139.071 18.0794 138.514 18.2906 137.842 18.2906Z" fill="#BACFD5"/>
<path d="M150.388 34.649C149.005 34.649 147.748 34.361 146.615 33.785C145.501 33.209 144.618 32.3738 143.965 31.2794C143.313 30.185 142.986 28.8602 142.986 27.305V26.9018C142.986 25.3466 143.313 24.0218 143.965 22.9274C144.618 21.833 145.501 20.9978 146.615 20.4218C147.748 19.8458 149.005 19.5578 150.388 19.5578C151.751 19.5578 152.922 19.7978 153.901 20.2778C154.881 20.7578 155.668 21.4202 156.263 22.265C156.877 23.0906 157.281 24.0314 157.473 25.0874L153.959 25.8362C153.882 25.2602 153.709 24.7418 153.441 24.281C153.172 23.8202 152.788 23.4554 152.289 23.1866C151.809 22.9178 151.204 22.7834 150.474 22.7834C149.745 22.7834 149.082 22.9466 148.487 23.273C147.911 23.5802 147.45 24.0506 147.104 24.6842C146.778 25.2986 146.615 26.057 146.615 26.9594V27.2474C146.615 28.1498 146.778 28.9178 147.104 29.5514C147.45 30.1658 147.911 30.6362 148.487 30.9626C149.082 31.2698 149.745 31.4234 150.474 31.4234C151.569 31.4234 152.394 31.145 152.951 30.5882C153.527 30.0122 153.892 29.2634 154.045 28.3418L157.559 29.177C157.309 30.1946 156.877 31.1258 156.263 31.9706C155.668 32.7962 154.881 33.449 153.901 33.929C152.922 34.409 151.751 34.649 150.388 34.649Z" fill="#BACFD5"/>
<rect x="17.8369" y="8.31052" width="31.7442" height="31.7442" stroke="#BACFD5" stroke-width="3.25581"/>
<path d="M31.209 10.6826L31.209 38.6826" stroke="#BACFD5" stroke-width="3.26" stroke-linecap="square"/>
<path d="M49.209 8.68262L32.1015 22.9388C31.6317 23.3304 31.6202 24.0482 32.0773 24.4545L49.209 39.6826" stroke="#BACFD5" stroke-width="3.26"/>
</svg>
