<svg width="191" height="55" viewBox="0 0 191 55" fill="none" xmlns="http://www.w3.org/2000/svg">
<path d="M64.689 35.1466C64.413 35.5426 64.011 35.7406 63.483 35.7406C63.003 35.7406 62.505 35.5846 61.989 35.2726C61.521 34.9966 61.257 34.7266 61.197 34.4626C61.173 34.3666 61.161 34.2766 61.161 34.1926C61.161 34.0006 61.239 33.7846 61.395 33.5446C61.563 33.3046 61.641 33.0946 61.629 32.9146L61.089 26.8666L57.993 33.8506C57.957 33.9466 57.939 34.0606 57.939 34.1926C57.939 34.2886 57.951 34.4386 57.975 34.6426C58.011 34.8466 58.029 35.0026 58.029 35.1106C58.029 35.3866 57.921 35.5966 57.705 35.7406C57.393 35.9566 57.027 36.0646 56.607 36.0646C56.187 36.0646 55.803 35.9506 55.455 35.7226C55.119 35.5066 54.909 35.2186 54.825 34.8586C54.801 34.7506 54.789 34.6546 54.789 34.5706C54.789 34.4866 54.801 34.3846 54.825 34.2646C54.849 34.1446 54.861 34.0546 54.861 33.9946C54.861 33.9226 54.849 33.8506 54.825 33.7786L52.233 26.8666L52.485 33.3826C52.497 33.5506 52.539 33.7906 52.611 34.1026C52.683 34.4026 52.719 34.6246 52.719 34.7686C52.719 35.2126 52.389 35.5606 51.729 35.8126C51.645 35.8366 51.543 35.8486 51.423 35.8486C51.051 35.8486 50.667 35.7226 50.271 35.4706C49.815 35.1946 49.521 34.8346 49.389 34.3906C49.365 34.3186 49.353 34.2526 49.353 34.1926C49.353 34.0726 49.425 33.9406 49.569 33.7966C49.713 33.6406 49.785 33.5026 49.785 33.3826L49.569 23.1226C49.569 22.9546 49.509 22.7446 49.389 22.4926C49.269 22.2286 49.209 22.0306 49.209 21.8986C49.209 21.6946 49.317 21.4786 49.533 21.2506C49.749 21.0106 50.127 20.8906 50.667 20.8906C51.459 20.8906 52.089 21.0826 52.557 21.4666C52.821 21.6826 52.953 21.9106 52.953 22.1506C52.953 22.1866 52.947 22.2406 52.935 22.3126C52.935 22.3846 52.935 22.4386 52.935 22.4746C52.935 22.5826 52.953 22.6786 52.989 22.7626L56.553 31.4026L60.549 22.2226C60.597 22.1146 60.621 21.9886 60.621 21.8446C60.621 21.7966 60.615 21.7246 60.603 21.6286C60.603 21.5326 60.603 21.4606 60.603 21.4126C60.603 21.1366 60.729 20.9026 60.981 20.7106C61.185 20.5546 61.455 20.4766 61.791 20.4766C62.307 20.4766 62.805 20.6326 63.285 20.9446C63.777 21.2566 64.017 21.6106 64.005 22.0066C63.993 22.1986 63.903 22.3606 63.735 22.4926C63.567 22.6126 63.489 22.7266 63.501 22.8346L64.257 33.4546C64.269 33.5746 64.365 33.7846 64.545 34.0846C64.725 34.3726 64.815 34.6066 64.815 34.7866C64.815 34.9066 64.773 35.0266 64.689 35.1466Z" fill="#BACFD5"/>
<path d="M73.9335 34.4266C73.7535 35.0146 73.3095 35.3086 72.6015 35.3086C72.3615 35.3086 72.1695 35.2666 72.0255 35.1826C71.8335 35.0506 71.7015 34.7866 71.6295 34.3906C71.4855 33.7066 71.3415 33.1726 71.1975 32.7886C71.1615 33.4486 70.8015 34.1206 70.1175 34.8046C69.4335 35.4766 68.7435 35.8126 68.0475 35.8126C67.1715 35.8126 66.5655 35.2306 66.2295 34.0666C66.1095 33.6346 66.0495 33.2266 66.0495 32.8426C66.0495 31.7266 66.6195 30.7726 67.7595 29.9806C68.6955 29.4286 69.6375 28.8826 70.5855 28.3426C70.6335 28.1386 70.6575 27.9406 70.6575 27.7486C70.6575 27.3766 70.5555 27.1606 70.3515 27.1006C70.1475 27.0286 69.9735 26.9926 69.8295 26.9926C69.5775 26.9926 69.3675 27.0766 69.1995 27.2446C69.0435 27.4006 68.8935 27.5506 68.7495 27.6946C68.6055 27.7906 68.4195 28.0126 68.1915 28.3606C68.0115 28.6366 67.8135 28.7866 67.5975 28.8106C67.2855 28.8466 67.0035 28.7386 66.7515 28.4866C66.4995 28.2346 66.3735 27.9406 66.3735 27.6046C66.3735 27.4126 66.4215 27.2386 66.5175 27.0826C66.7935 26.6266 67.2075 26.2306 67.7595 25.8946C68.5995 25.3906 69.6495 25.1386 70.9095 25.1386C71.7135 25.1386 72.2655 25.5226 72.5655 26.2906C72.7575 26.8066 72.9015 27.7726 72.9975 29.1886C73.1055 30.9046 73.2375 32.1586 73.3935 32.9506C73.4175 33.1066 73.5195 33.3046 73.6995 33.5446C73.8795 33.7846 73.9695 33.9946 73.9695 34.1746C73.9695 34.2586 73.9575 34.3426 73.9335 34.4266ZM70.8015 29.9986C70.4415 30.1906 70.0815 30.3886 69.7215 30.5926C69.3735 30.7966 69.0495 31.0666 68.7495 31.4026C68.3175 31.8946 68.1015 32.3146 68.1015 32.6626C68.1015 32.9506 68.2095 33.2506 68.4255 33.5626C68.5455 33.7306 68.6775 33.8146 68.8215 33.8146C69.1335 33.8146 69.4695 33.4666 69.8295 32.7706C70.2015 32.0746 70.5255 31.1506 70.8015 29.9986Z" fill="#BACFD5"/>
<path d="M77.8768 24.3826C77.7928 24.5746 77.5588 24.6706 77.1748 24.6706C76.8988 24.6706 76.6348 24.6106 76.3828 24.4906C76.0588 24.3466 75.8968 24.1546 75.8968 23.9146C75.8968 23.8426 75.9148 23.7406 75.9508 23.6086C75.9868 23.4766 76.0048 23.3866 76.0048 23.3386C76.0048 23.2666 75.9928 23.1346 75.9688 22.9426C75.9448 22.7506 75.9328 22.6066 75.9328 22.5106C75.9328 22.2346 76.0048 22.0306 76.1488 21.8986C76.3408 21.7066 76.5928 21.6106 76.9048 21.6106C77.1568 21.6106 77.3968 21.6886 77.6248 21.8446C77.8528 22.0006 77.9668 22.2046 77.9668 22.4566C77.9668 22.5646 77.9308 22.7386 77.8588 22.9786C77.7868 23.2186 77.7568 23.3986 77.7688 23.5186C77.7688 23.6266 77.7928 23.7406 77.8408 23.8606C77.9008 23.9806 77.9308 24.0766 77.9308 24.1486C77.9308 24.2206 77.9128 24.2986 77.8768 24.3826ZM77.8768 28.0726C77.8768 31.8046 77.8828 33.0886 77.8948 31.9246C77.8708 33.7246 77.7148 35.1166 77.4268 36.1006C77.0428 37.4326 76.4248 38.1526 75.5728 38.2606C75.2008 38.3086 74.7928 38.2246 74.3488 38.0086C73.9048 37.8046 73.6828 37.5646 73.6828 37.2886C73.6828 37.1926 73.7188 37.0966 73.7908 37.0006C73.9228 36.8326 74.1448 36.7726 74.4568 36.8206C74.7568 36.8686 74.9608 36.8566 75.0688 36.7846C75.4528 36.5206 75.6448 34.3546 75.6448 30.2866C75.6448 29.3386 75.6328 28.1986 75.6088 26.8666C75.6088 26.7586 75.5728 26.5726 75.5008 26.3086C75.4288 26.0326 75.3928 25.8286 75.3928 25.6966C75.3928 25.2766 75.7288 25.0666 76.4008 25.0666C76.9768 25.0666 77.3968 25.1986 77.6608 25.4626C77.8768 25.6786 77.9848 25.9906 77.9848 26.3986C77.9848 26.5906 77.9668 26.8726 77.9308 27.2446C77.8948 27.6046 77.8768 27.8806 77.8768 28.0726Z" fill="#BACFD5"/>
<path d="M86.0388 33.2926C85.9428 33.7486 85.6188 34.2346 85.0668 34.7506C84.9828 34.8826 84.6528 35.0566 84.0768 35.2726C83.4168 35.5246 82.8468 35.6326 82.3668 35.5966C81.4668 35.5366 80.7588 35.0206 80.2428 34.0486C79.7748 33.1486 79.5408 32.0446 79.5408 30.7366C79.5408 29.3206 79.8048 28.0786 80.3328 27.0106C80.9208 25.8346 81.7068 25.1746 82.6908 25.0306C82.8828 25.0066 83.0688 24.9946 83.2488 24.9946C84.6768 24.9946 85.4628 25.8706 85.6068 27.6226C85.6788 28.4266 85.3608 29.3026 84.6528 30.2506C83.8848 31.2946 82.9008 32.0266 81.7008 32.4466C81.8328 32.9266 81.9348 33.2386 82.0068 33.3826C82.1748 33.6826 82.4028 33.8326 82.6908 33.8326C82.9668 33.8326 83.2608 33.7246 83.5728 33.5086C83.8368 33.3286 84.0168 33.1546 84.1128 32.9866C84.1608 32.9626 84.2088 32.8306 84.2568 32.5906C84.3048 32.3386 84.4308 32.1586 84.6348 32.0506C84.7068 32.0146 84.7908 31.9966 84.8868 31.9966C85.1748 31.9966 85.4508 32.1406 85.7148 32.4286C85.9908 32.7046 86.0988 32.9926 86.0388 33.2926ZM83.2128 26.9566C82.7328 26.9566 82.3428 27.2986 82.0428 27.9826C81.6468 28.8946 81.4848 29.7946 81.5568 30.6826C82.1208 30.5026 82.6428 30.0826 83.1228 29.4226C83.6028 28.7626 83.8428 28.1746 83.8428 27.6586C83.8428 27.1906 83.6328 26.9566 83.2128 26.9566Z" fill="#BACFD5"/>
<path d="M95.6569 34.0306C95.6329 34.2946 95.4589 34.5226 95.1349 34.7146C94.8109 34.8946 94.4509 34.9846 94.0549 34.9846C93.4669 34.9846 93.0649 34.7986 92.8489 34.4266C92.9449 30.7306 92.8369 28.8586 92.5249 28.8106C92.2249 28.7626 91.4929 30.4186 90.3289 33.7786C90.3289 34.1386 90.3289 34.4986 90.3289 34.8586C90.3169 35.2906 90.1969 35.5966 89.9689 35.7766C89.7529 35.9566 89.5189 36.0466 89.2669 36.0466C88.8349 36.0466 88.3729 35.8126 87.8809 35.3446C87.7369 35.2246 87.6589 34.3126 87.6469 32.6086C87.6589 33.6526 87.6649 31.7146 87.6649 26.7946C87.6649 26.6866 87.6529 26.5426 87.6289 26.3626C87.6049 26.1706 87.5929 26.0326 87.5929 25.9486C87.5929 25.7206 87.6529 25.5226 87.7729 25.3546C87.9169 25.1386 88.1449 25.0306 88.4569 25.0306C88.7809 25.0306 89.1169 25.1326 89.4649 25.3366C89.8249 25.5286 90.0409 25.7146 90.1129 25.8946C90.1609 26.0146 90.1849 26.1346 90.1849 26.2546C90.1849 26.3746 90.1369 26.5426 90.0409 26.7586C89.9449 26.9746 89.8969 27.1546 89.8969 27.2986V29.7826C90.6529 28.1746 91.2229 27.1126 91.6069 26.5966C92.2909 25.7086 93.0649 25.2946 93.9289 25.3546C94.4449 25.3906 94.8109 25.8706 95.0269 26.7946C95.1949 27.4906 95.2849 28.5226 95.2969 29.8906C95.2969 30.9706 95.2969 32.0506 95.2969 33.1306C95.3209 33.2146 95.4049 33.3646 95.5489 33.5806C95.6329 33.7006 95.6689 33.8506 95.6569 34.0306Z" fill="#BACFD5"/>
<path d="M103.07 27.0106C102.974 27.0106 102.824 26.9746 102.62 26.9026C102.416 26.8186 102.26 26.7766 102.152 26.7766C102.068 26.7766 101.984 26.7946 101.9 26.8306L101.234 27.1726V33.3286C101.234 33.5566 101.354 33.8506 101.594 34.2106C101.846 34.5706 101.948 34.8586 101.9 35.0746C101.84 35.3386 101.66 35.5486 101.36 35.7046C101.072 35.8606 100.76 35.9386 100.424 35.9386C99.7882 35.9386 99.3502 35.6566 99.1102 35.0926C99.0382 34.9246 98.9962 34.3906 98.9842 33.4906C98.9722 32.8906 98.9782 31.9546 99.0022 30.6826C99.0262 29.2426 99.0382 28.3306 99.0382 27.9466C98.9662 27.9706 98.8462 28.0546 98.6782 28.1986C98.5102 28.3306 98.3422 28.3966 98.1742 28.3966C98.0422 28.3966 97.8742 28.3606 97.6702 28.2886C96.8302 28.0006 96.4102 27.7066 96.4102 27.4066C96.4102 27.3346 96.4282 27.2566 96.4642 27.1726C96.5482 26.9806 96.7042 26.8726 96.9322 26.8486C97.2802 26.8006 97.4902 26.7586 97.5622 26.7226C97.8382 26.6146 98.3422 26.3566 99.0742 25.9486V24.3826C99.0742 24.2626 99.0382 24.1066 98.9662 23.9146C98.9062 23.7106 98.8762 23.5606 98.8762 23.4646C98.8762 23.3566 98.9062 23.2546 98.9662 23.1586C99.2782 22.6786 99.6982 22.4386 100.226 22.4386C100.838 22.4386 101.27 22.6786 101.522 23.1586C101.618 23.3506 101.666 23.5066 101.666 23.6266C101.666 23.7706 101.594 23.9206 101.45 24.0766C101.306 24.2326 101.234 24.3766 101.234 24.5086V25.3906C101.45 25.2946 101.69 25.1326 101.954 24.9046C102.158 24.7366 102.332 24.6526 102.476 24.6526C102.536 24.6526 102.602 24.6646 102.674 24.6886C103.43 24.8926 103.808 25.3486 103.808 26.0566C103.808 26.2846 103.736 26.5006 103.592 26.7046C103.46 26.9086 103.286 27.0106 103.07 27.0106Z" fill="#BACFD5"/>
<path d="M112.324 34.4266C112.144 35.0146 111.7 35.3086 110.992 35.3086C110.752 35.3086 110.56 35.2666 110.416 35.1826C110.224 35.0506 110.092 34.7866 110.02 34.3906C109.876 33.7066 109.732 33.1726 109.588 32.7886C109.552 33.4486 109.192 34.1206 108.508 34.8046C107.824 35.4766 107.134 35.8126 106.438 35.8126C105.562 35.8126 104.956 35.2306 104.62 34.0666C104.5 33.6346 104.44 33.2266 104.44 32.8426C104.44 31.7266 105.01 30.7726 106.15 29.9806C107.086 29.4286 108.028 28.8826 108.976 28.3426C109.024 28.1386 109.048 27.9406 109.048 27.7486C109.048 27.3766 108.946 27.1606 108.742 27.1006C108.538 27.0286 108.364 26.9926 108.22 26.9926C107.968 26.9926 107.758 27.0766 107.59 27.2446C107.434 27.4006 107.284 27.5506 107.14 27.6946C106.996 27.7906 106.81 28.0126 106.582 28.3606C106.402 28.6366 106.204 28.7866 105.988 28.8106C105.676 28.8466 105.394 28.7386 105.142 28.4866C104.89 28.2346 104.764 27.9406 104.764 27.6046C104.764 27.4126 104.812 27.2386 104.908 27.0826C105.184 26.6266 105.598 26.2306 106.15 25.8946C106.99 25.3906 108.04 25.1386 109.3 25.1386C110.104 25.1386 110.656 25.5226 110.956 26.2906C111.148 26.8066 111.292 27.7726 111.388 29.1886C111.496 30.9046 111.628 32.1586 111.784 32.9506C111.808 33.1066 111.91 33.3046 112.09 33.5446C112.27 33.7846 112.36 33.9946 112.36 34.1746C112.36 34.2586 112.348 34.3426 112.324 34.4266ZM109.192 29.9986C108.832 30.1906 108.472 30.3886 108.112 30.5926C107.764 30.7966 107.44 31.0666 107.14 31.4026C106.708 31.8946 106.492 32.3146 106.492 32.6626C106.492 32.9506 106.6 33.2506 106.816 33.5626C106.936 33.7306 107.068 33.8146 107.212 33.8146C107.524 33.8146 107.86 33.4666 108.22 32.7706C108.592 32.0746 108.916 31.1506 109.192 29.9986Z" fill="#BACFD5"/>
<path d="M133.419 35.1466C133.143 35.5426 132.741 35.7406 132.213 35.7406C131.733 35.7406 131.235 35.5846 130.719 35.2726C130.251 34.9966 129.987 34.7266 129.927 34.4626C129.903 34.3666 129.891 34.2766 129.891 34.1926C129.891 34.0006 129.969 33.7846 130.125 33.5446C130.293 33.3046 130.371 33.0946 130.359 32.9146L129.819 26.8666L126.723 33.8506C126.687 33.9466 126.669 34.0606 126.669 34.1926C126.669 34.2886 126.681 34.4386 126.705 34.6426C126.741 34.8466 126.759 35.0026 126.759 35.1106C126.759 35.3866 126.651 35.5966 126.435 35.7406C126.123 35.9566 125.757 36.0646 125.337 36.0646C124.917 36.0646 124.533 35.9506 124.185 35.7226C123.849 35.5066 123.639 35.2186 123.555 34.8586C123.531 34.7506 123.519 34.6546 123.519 34.5706C123.519 34.4866 123.531 34.3846 123.555 34.2646C123.579 34.1446 123.591 34.0546 123.591 33.9946C123.591 33.9226 123.579 33.8506 123.555 33.7786L120.963 26.8666L121.215 33.3826C121.227 33.5506 121.269 33.7906 121.341 34.1026C121.413 34.4026 121.449 34.6246 121.449 34.7686C121.449 35.2126 121.119 35.5606 120.459 35.8126C120.375 35.8366 120.273 35.8486 120.153 35.8486C119.781 35.8486 119.397 35.7226 119.001 35.4706C118.545 35.1946 118.251 34.8346 118.119 34.3906C118.095 34.3186 118.083 34.2526 118.083 34.1926C118.083 34.0726 118.155 33.9406 118.299 33.7966C118.443 33.6406 118.515 33.5026 118.515 33.3826L118.299 23.1226C118.299 22.9546 118.239 22.7446 118.119 22.4926C117.999 22.2286 117.939 22.0306 117.939 21.8986C117.939 21.6946 118.047 21.4786 118.263 21.2506C118.479 21.0106 118.857 20.8906 119.397 20.8906C120.189 20.8906 120.819 21.0826 121.287 21.4666C121.551 21.6826 121.683 21.9106 121.683 22.1506C121.683 22.1866 121.677 22.2406 121.665 22.3126C121.665 22.3846 121.665 22.4386 121.665 22.4746C121.665 22.5826 121.683 22.6786 121.719 22.7626L125.283 31.4026L129.279 22.2226C129.327 22.1146 129.351 21.9886 129.351 21.8446C129.351 21.7966 129.345 21.7246 129.333 21.6286C129.333 21.5326 129.333 21.4606 129.333 21.4126C129.333 21.1366 129.459 20.9026 129.711 20.7106C129.915 20.5546 130.185 20.4766 130.521 20.4766C131.037 20.4766 131.535 20.6326 132.015 20.9446C132.507 21.2566 132.747 21.6106 132.735 22.0066C132.723 22.1986 132.633 22.3606 132.465 22.4926C132.297 22.6126 132.219 22.7266 132.231 22.8346L132.987 33.4546C132.999 33.5746 133.095 33.7846 133.275 34.0846C133.455 34.3726 133.545 34.6066 133.545 34.7866C133.545 34.9066 133.503 35.0266 133.419 35.1466Z" fill="#BACFD5"/>
<path d="M142.664 34.4266C142.484 35.0146 142.04 35.3086 141.332 35.3086C141.092 35.3086 140.9 35.2666 140.756 35.1826C140.564 35.0506 140.432 34.7866 140.36 34.3906C140.216 33.7066 140.072 33.1726 139.928 32.7886C139.892 33.4486 139.532 34.1206 138.848 34.8046C138.164 35.4766 137.474 35.8126 136.778 35.8126C135.902 35.8126 135.296 35.2306 134.96 34.0666C134.84 33.6346 134.78 33.2266 134.78 32.8426C134.78 31.7266 135.35 30.7726 136.49 29.9806C137.426 29.4286 138.368 28.8826 139.316 28.3426C139.364 28.1386 139.388 27.9406 139.388 27.7486C139.388 27.3766 139.286 27.1606 139.082 27.1006C138.878 27.0286 138.704 26.9926 138.56 26.9926C138.308 26.9926 138.098 27.0766 137.93 27.2446C137.774 27.4006 137.624 27.5506 137.48 27.6946C137.336 27.7906 137.15 28.0126 136.922 28.3606C136.742 28.6366 136.544 28.7866 136.328 28.8106C136.016 28.8466 135.734 28.7386 135.482 28.4866C135.23 28.2346 135.104 27.9406 135.104 27.6046C135.104 27.4126 135.152 27.2386 135.248 27.0826C135.524 26.6266 135.938 26.2306 136.49 25.8946C137.33 25.3906 138.38 25.1386 139.64 25.1386C140.444 25.1386 140.996 25.5226 141.296 26.2906C141.488 26.8066 141.632 27.7726 141.728 29.1886C141.836 30.9046 141.968 32.1586 142.124 32.9506C142.148 33.1066 142.25 33.3046 142.43 33.5446C142.61 33.7846 142.7 33.9946 142.7 34.1746C142.7 34.2586 142.688 34.3426 142.664 34.4266ZM139.532 29.9986C139.172 30.1906 138.812 30.3886 138.452 30.5926C138.104 30.7966 137.78 31.0666 137.48 31.4026C137.048 31.8946 136.832 32.3146 136.832 32.6626C136.832 32.9506 136.94 33.2506 137.156 33.5626C137.276 33.7306 137.408 33.8146 137.552 33.8146C137.864 33.8146 138.2 33.4666 138.56 32.7706C138.932 32.0746 139.256 31.1506 139.532 29.9986Z" fill="#BACFD5"/>
<path d="M152.258 34.0306C152.234 34.2946 152.06 34.5226 151.736 34.7146C151.412 34.8946 151.052 34.9846 150.656 34.9846C150.068 34.9846 149.666 34.7986 149.45 34.4266C149.546 30.7306 149.438 28.8586 149.126 28.8106C148.826 28.7626 148.094 30.4186 146.93 33.7786C146.93 34.1386 146.93 34.4986 146.93 34.8586C146.918 35.2906 146.798 35.5966 146.57 35.7766C146.354 35.9566 146.12 36.0466 145.868 36.0466C145.436 36.0466 144.974 35.8126 144.482 35.3446C144.338 35.2246 144.26 34.3126 144.248 32.6086C144.26 33.6526 144.266 31.7146 144.266 26.7946C144.266 26.6866 144.254 26.5426 144.23 26.3626C144.206 26.1706 144.194 26.0326 144.194 25.9486C144.194 25.7206 144.254 25.5226 144.374 25.3546C144.518 25.1386 144.746 25.0306 145.058 25.0306C145.382 25.0306 145.718 25.1326 146.066 25.3366C146.426 25.5286 146.642 25.7146 146.714 25.8946C146.762 26.0146 146.786 26.1346 146.786 26.2546C146.786 26.3746 146.738 26.5426 146.642 26.7586C146.546 26.9746 146.498 27.1546 146.498 27.2986V29.7826C147.254 28.1746 147.824 27.1126 148.208 26.5966C148.892 25.7086 149.666 25.2946 150.53 25.3546C151.046 25.3906 151.412 25.8706 151.628 26.7946C151.796 27.4906 151.886 28.5226 151.898 29.8906C151.898 30.9706 151.898 32.0506 151.898 33.1306C151.922 33.2146 152.006 33.3646 152.15 33.5806C152.234 33.7006 152.27 33.8506 152.258 34.0306Z" fill="#BACFD5"/>
<path d="M159.672 27.0106C159.576 27.0106 159.426 26.9746 159.222 26.9026C159.018 26.8186 158.862 26.7766 158.754 26.7766C158.67 26.7766 158.586 26.7946 158.502 26.8306L157.836 27.1726V33.3286C157.836 33.5566 157.956 33.8506 158.196 34.2106C158.448 34.5706 158.55 34.8586 158.502 35.0746C158.442 35.3386 158.262 35.5486 157.962 35.7046C157.674 35.8606 157.362 35.9386 157.026 35.9386C156.39 35.9386 155.952 35.6566 155.712 35.0926C155.64 34.9246 155.598 34.3906 155.586 33.4906C155.574 32.8906 155.58 31.9546 155.604 30.6826C155.628 29.2426 155.64 28.3306 155.64 27.9466C155.568 27.9706 155.448 28.0546 155.28 28.1986C155.112 28.3306 154.944 28.3966 154.776 28.3966C154.644 28.3966 154.476 28.3606 154.272 28.2886C153.432 28.0006 153.012 27.7066 153.012 27.4066C153.012 27.3346 153.03 27.2566 153.066 27.1726C153.15 26.9806 153.306 26.8726 153.534 26.8486C153.882 26.8006 154.092 26.7586 154.164 26.7226C154.44 26.6146 154.944 26.3566 155.676 25.9486V24.3826C155.676 24.2626 155.64 24.1066 155.568 23.9146C155.508 23.7106 155.478 23.5606 155.478 23.4646C155.478 23.3566 155.508 23.2546 155.568 23.1586C155.88 22.6786 156.3 22.4386 156.828 22.4386C157.44 22.4386 157.872 22.6786 158.124 23.1586C158.22 23.3506 158.268 23.5066 158.268 23.6266C158.268 23.7706 158.196 23.9206 158.052 24.0766C157.908 24.2326 157.836 24.3766 157.836 24.5086V25.3906C158.052 25.2946 158.292 25.1326 158.556 24.9046C158.76 24.7366 158.934 24.6526 159.078 24.6526C159.138 24.6526 159.204 24.6646 159.276 24.6886C160.032 24.8926 160.41 25.3486 160.41 26.0566C160.41 26.2846 160.338 26.5006 160.194 26.7046C160.062 26.9086 159.888 27.0106 159.672 27.0106Z" fill="#BACFD5"/>
<path d="M164.346 21.6826C164.382 21.7186 164.4 21.7786 164.4 21.8626C164.4 21.9706 164.364 22.1566 164.292 22.4206C164.208 22.7446 164.154 22.9666 164.13 23.0866C164.106 23.2066 164.118 23.4706 164.166 23.8786C164.166 24.1306 164.088 24.2986 163.932 24.3826C163.788 24.4546 163.602 24.4906 163.374 24.4906C163.05 24.4906 162.72 24.4246 162.384 24.2926C161.976 24.1246 161.772 23.9026 161.772 23.6266C161.772 23.5426 161.808 23.4286 161.88 23.2846C161.952 23.1286 161.994 23.0026 162.006 22.9066C162.03 22.8106 162.03 22.5706 162.006 22.1866C161.982 21.8866 162.042 21.6826 162.186 21.5746C162.378 21.4306 162.72 21.3586 163.212 21.3586C163.752 21.3586 164.13 21.4666 164.346 21.6826ZM164.58 26.0746C164.58 26.2426 164.484 26.5066 164.292 26.8666C164.112 27.2146 164.022 27.5026 164.022 27.7306V33.0226C164.022 33.2626 164.088 33.6046 164.22 34.0486C164.352 34.4806 164.418 34.7806 164.418 34.9486C164.418 35.1886 164.322 35.3686 164.13 35.4886C163.83 35.6806 163.506 35.7766 163.158 35.7766C162.702 35.7766 162.378 35.6206 162.186 35.3086C161.934 34.9246 161.808 33.7786 161.808 31.8706C161.808 31.4146 161.814 30.7066 161.826 29.7466C161.85 28.7746 161.862 28.0666 161.862 27.6226C161.862 27.4546 161.844 27.2386 161.808 26.9746C161.772 26.6986 161.754 26.5006 161.754 26.3806C161.754 25.9846 161.898 25.6426 162.186 25.3546C162.306 25.2346 162.528 25.1746 162.852 25.1746C163.176 25.1746 163.5 25.2286 163.824 25.3366C164.148 25.4326 164.352 25.5466 164.436 25.6786C164.532 25.8106 164.58 25.9426 164.58 26.0746Z" fill="#BACFD5"/>
<path d="M171.805 32.7706C171.805 33.6106 171.505 34.3306 170.905 34.9306C170.305 35.5186 169.597 35.8126 168.781 35.8126C168.265 35.8126 167.731 35.5666 167.179 35.0746C166.747 34.6786 166.357 34.1926 166.009 33.6166C165.709 33.1126 165.577 32.7946 165.613 32.6626C165.745 32.3626 166.159 32.2126 166.855 32.2126C167.143 32.2126 167.371 32.2546 167.539 32.3386C167.827 32.4946 167.989 32.6926 168.025 32.9326C168.061 33.2086 168.121 33.3826 168.205 33.4546C168.457 33.8386 168.685 34.0306 168.889 34.0306C169.045 34.0306 169.189 33.9286 169.321 33.7246C169.465 33.5086 169.537 33.2566 169.537 32.9686C169.537 32.7886 169.507 32.6086 169.447 32.4286C169.387 32.2486 169.063 31.9726 168.475 31.6006C167.767 31.1566 167.263 30.7666 166.963 30.4306C166.447 29.8546 166.189 29.1826 166.189 28.4146C166.189 27.5146 166.453 26.7286 166.981 26.0566C167.509 25.3726 168.181 25.0306 168.997 25.0306C169.837 25.0306 170.479 25.3486 170.923 25.9846C171.283 26.5006 171.433 27.0226 171.373 27.5506C171.505 27.6946 171.571 27.9346 171.571 28.2706C171.571 28.6306 171.439 28.9366 171.175 29.1886C170.911 29.4406 170.641 29.5666 170.365 29.5666C169.957 29.5666 169.603 29.2966 169.303 28.7566C169.219 28.6126 169.177 28.4206 169.177 28.1806C169.177 28.0726 169.183 27.9226 169.195 27.7306C169.219 27.5266 169.231 27.3826 169.231 27.2986C169.231 26.9866 169.117 26.8306 168.889 26.8306C168.541 26.8306 168.367 27.1726 168.367 27.8566C168.367 28.5526 168.595 29.1106 169.051 29.5306C169.231 29.6986 169.621 29.9386 170.221 30.2506C170.737 30.5146 171.103 30.7846 171.319 31.0606C171.643 31.4806 171.805 32.0506 171.805 32.7706Z" fill="#BACFD5"/>
<circle cx="30.209" cy="21.1826" r="11" fill="#BACFD5"/>
<path d="M41.209 36.1826C41.209 33.2652 40.0501 30.4673 37.9872 28.4044C35.9243 26.3415 33.1264 25.1826 30.209 25.1826C27.2916 25.1826 24.4937 26.3415 22.4308 28.4044C20.3679 30.4673 19.209 33.2652 19.209 36.1826L41.209 36.1826Z" fill="#BACFD5"/>
<path d="M41.209 44.1826C41.209 41.2652 40.0501 38.4673 37.9872 36.4044C35.9243 34.3415 33.1264 33.1826 30.209 33.1826C27.2916 33.1826 24.4937 34.3415 22.4308 36.4044C20.3679 38.4673 19.209 41.2652 19.209 44.1826L41.209 44.1826Z" fill="#BACFD5"/>
</svg>
