<svg width="155" height="40" viewBox="0 0 155 40" fill="none" xmlns="http://www.w3.org/2000/svg">
<path d="M43.8886 25.1827H41.8486V13.9227H46.3686C47.622 13.9227 48.5953 14.236 49.2886 14.8627C49.982 15.4893 50.3286 16.436 50.3286 17.7027C50.3286 18.8093 49.9686 19.676 49.2486 20.3027C48.542 20.9293 47.582 21.2427 46.3686 21.2427H43.8886V25.1827ZM46.0886 15.5827H43.8886V19.7427H46.0886C46.8086 19.7427 47.3886 19.5693 47.8286 19.2227C48.2686 18.876 48.4886 18.356 48.4886 17.6627C48.4886 16.956 48.2686 16.436 47.8286 16.1027C47.402 15.756 46.822 15.5827 46.0886 15.5827Z" fill="#BACFD5"/>
<path d="M54.6296 25.3827C53.4962 25.3827 52.6896 24.996 52.2096 24.2227C51.7296 23.4493 51.4896 22.436 51.4896 21.1827C51.4896 19.916 51.7296 18.896 52.2096 18.1227C52.7029 17.336 53.5096 16.9427 54.6296 16.9427C55.2696 16.9427 55.7762 17.056 56.1496 17.2827C56.5229 17.496 56.8029 17.736 56.9896 18.0027C57.1762 18.2693 57.2896 18.4693 57.3296 18.6027H57.3696V16.9627H59.4696V25.1827H57.7096L57.3696 23.8427H57.3296C57.2896 23.9627 57.1696 24.1493 56.9696 24.4027C56.7829 24.6427 56.4962 24.8693 56.1096 25.0827C55.7362 25.2827 55.2429 25.3827 54.6296 25.3827ZM55.4696 23.6627C56.2162 23.6627 56.7162 23.4293 56.9696 22.9627C57.2362 22.4827 57.3696 21.896 57.3696 21.2027C57.3696 20.4693 57.2362 19.876 56.9696 19.4227C56.7029 18.9693 56.2029 18.7427 55.4696 18.7427C54.9496 18.7427 54.5429 18.856 54.2496 19.0827C53.9696 19.3093 53.7696 19.6093 53.6496 19.9827C53.5429 20.3427 53.4896 20.7493 53.4896 21.2027C53.4896 21.656 53.5429 22.0693 53.6496 22.4427C53.7696 22.816 53.9696 23.116 54.2496 23.3427C54.5429 23.556 54.9496 23.6627 55.4696 23.6627Z" fill="#BACFD5"/>
<path d="M64.7321 25.3827C64.3854 25.3827 63.9987 25.3227 63.5721 25.2027C63.1587 25.0827 62.7587 24.9027 62.3721 24.6627C61.9987 24.4227 61.6854 24.116 61.4321 23.7427C61.1921 23.356 61.0721 22.9027 61.0721 22.3827H62.9521C62.9521 22.4093 62.9587 22.5027 62.9721 22.6627C62.9854 22.8093 63.0387 22.9827 63.1321 23.1827C63.2387 23.3693 63.4121 23.536 63.6521 23.6827C63.8921 23.8293 64.2387 23.9027 64.6921 23.9027C65.2254 23.9027 65.6254 23.8093 65.8921 23.6227C66.1587 23.4227 66.2921 23.196 66.2921 22.9427C66.2921 22.6493 66.1654 22.4227 65.9121 22.2627C65.6721 22.0893 65.3587 21.9493 64.9721 21.8427C64.5854 21.736 64.1721 21.6293 63.7321 21.5227C63.3054 21.4027 62.8987 21.2493 62.5121 21.0627C62.1387 20.876 61.8321 20.6227 61.5921 20.3027C61.3521 19.9693 61.2321 19.5427 61.2321 19.0227C61.2321 18.2627 61.5387 17.6893 62.1521 17.3027C62.7654 16.9027 63.5454 16.7027 64.4921 16.7027C65.1587 16.7027 65.7787 16.8093 66.3521 17.0227C66.9254 17.2227 67.3854 17.5493 67.7321 18.0027C68.0787 18.4427 68.2521 19.0227 68.2521 19.7427H66.3721C66.3854 19.3293 66.2921 19.0227 66.0921 18.8227C65.9054 18.6093 65.6654 18.4627 65.3721 18.3827C65.0921 18.3027 64.8187 18.2627 64.5521 18.2627C64.0721 18.2627 63.7054 18.3493 63.4521 18.5227C63.2121 18.6827 63.0921 18.896 63.0921 19.1627C63.0921 19.4693 63.2121 19.7093 63.4521 19.8827C63.7054 20.0427 64.0254 20.176 64.4121 20.2827C64.8121 20.3893 65.2254 20.5027 65.6521 20.6227C66.0921 20.7293 66.5054 20.876 66.8921 21.0627C67.2921 21.2493 67.6121 21.5027 67.8521 21.8227C68.1054 22.1293 68.2321 22.5427 68.2321 23.0627C68.2321 23.8493 67.9054 24.436 67.2521 24.8227C66.6121 25.196 65.7721 25.3827 64.7321 25.3827Z" fill="#BACFD5"/>
<path d="M72.6729 25.1827C72.0195 25.1827 71.5262 25.0227 71.1929 24.7027C70.8729 24.3827 70.7129 23.8627 70.7129 23.1427V18.4027H69.4729V16.9627C69.8595 16.9627 70.1595 16.9227 70.3729 16.8427C70.5862 16.7627 70.7395 16.576 70.8329 16.2827C70.9262 15.9893 70.9729 15.516 70.9729 14.8627H72.6129V16.9627H74.4929V18.4027H72.6129V23.5827H74.5329V25.1827H72.6729Z" fill="#BACFD5"/>
<path d="M80.1699 25.3827C79.2232 25.3827 78.4499 25.1827 77.8499 24.7827C77.2632 24.3693 76.8232 23.8493 76.5299 23.2227C76.2499 22.5827 76.1032 21.9093 76.0899 21.2027C76.0765 20.376 76.2299 19.6427 76.5499 19.0027C76.8832 18.3493 77.3499 17.8427 77.9499 17.4827C78.5632 17.1093 79.2832 16.9227 80.1099 16.9227C80.8432 16.9227 81.4965 17.0827 82.0699 17.4027C82.6565 17.7227 83.1232 18.176 83.4699 18.7627C83.8165 19.336 83.9965 20.016 84.0099 20.8027C84.0099 20.8293 84.0099 20.9027 84.0099 21.0227C84.0099 21.1427 84.0099 21.2427 84.0099 21.3227H78.0299C78.0299 22.0827 78.2165 22.6693 78.5899 23.0827C78.9632 23.4827 79.4765 23.6827 80.1299 23.6827C80.6365 23.6827 81.0565 23.556 81.3899 23.3027C81.7365 23.0493 81.9432 22.716 82.0099 22.3027H83.9899C83.8966 23.1693 83.5232 23.9027 82.8699 24.5027C82.2165 25.0893 81.3165 25.3827 80.1699 25.3827ZM78.0899 20.4027H81.9699C81.9565 20.3093 81.9232 20.1627 81.8699 19.9627C81.8299 19.7627 81.7432 19.556 81.6099 19.3427C81.4899 19.1293 81.3032 18.9493 81.0499 18.8027C80.7965 18.656 80.4699 18.5827 80.0699 18.5827C79.5365 18.5827 79.1299 18.696 78.8499 18.9227C78.5832 19.136 78.3899 19.3893 78.2699 19.6827C78.1632 19.9627 78.1032 20.2027 78.0899 20.4027Z" fill="#BACFD5"/>
<path d="M86.1882 25.1827V13.9227H88.1882V25.1827H86.1882Z" fill="#BACFD5"/>
<path d="M106.169 25.2227C105.236 24.836 104.329 24.3627 103.449 23.8027C102.876 24.3227 102.229 24.716 101.509 24.9827C100.803 25.236 100.083 25.3627 99.3494 25.3627C98.6161 25.3627 97.9427 25.236 97.3294 24.9827C96.7161 24.7293 96.2161 24.356 95.8294 23.8627C95.4561 23.3693 95.2694 22.7493 95.2694 22.0027C95.2694 21.456 95.3761 21.0027 95.5894 20.6427C95.8161 20.2693 96.0761 19.9693 96.3694 19.7427C96.6761 19.5027 96.9627 19.3227 97.2294 19.2027C97.5094 19.0693 97.7094 18.976 97.8294 18.9227C97.7627 18.816 97.6294 18.6493 97.4294 18.4227C97.2294 18.1827 97.0427 17.8827 96.8694 17.5227C96.6961 17.1627 96.6094 16.756 96.6094 16.3027C96.6094 15.7427 96.7561 15.276 97.0494 14.9027C97.3561 14.5293 97.7427 14.2493 98.2094 14.0627C98.6894 13.8627 99.1894 13.7627 99.7094 13.7627C100.243 13.7493 100.743 13.8293 101.209 14.0027C101.689 14.176 102.076 14.4493 102.369 14.8227C102.676 15.196 102.829 15.6627 102.829 16.2227C102.829 16.6893 102.716 17.1027 102.489 17.4627C102.263 17.8227 101.996 18.1293 101.689 18.3827C101.383 18.6227 101.103 18.8093 100.849 18.9427C100.596 19.076 100.443 19.156 100.389 19.1827C100.536 19.3693 100.823 19.6693 101.249 20.0827C101.689 20.496 102.189 20.9293 102.749 21.3827C102.856 21.236 102.969 21.016 103.089 20.7227C103.223 20.416 103.289 20.096 103.289 19.7627C103.289 19.4293 103.156 19.136 102.889 18.8827L104.589 17.7627C104.669 17.856 104.776 18.0627 104.909 18.3827C105.056 18.6893 105.169 19.0693 105.249 19.5227C105.329 19.9627 105.323 20.4427 105.229 20.9627C105.149 21.4827 104.929 21.996 104.569 22.5027C104.903 22.716 105.243 22.9227 105.589 23.1227C105.949 23.3093 106.389 23.5093 106.909 23.7227L106.169 25.2227ZM99.2694 18.2427C99.4427 18.1493 99.6694 18.0227 99.9494 17.8627C100.229 17.6893 100.483 17.4893 100.709 17.2627C100.936 17.036 101.063 16.7893 101.089 16.5227C101.116 16.216 101.043 15.9693 100.869 15.7827C100.696 15.5827 100.476 15.4493 100.209 15.3827C99.9427 15.3027 99.6694 15.296 99.3894 15.3627C99.1227 15.416 98.8961 15.536 98.7094 15.7227C98.5227 15.9093 98.4361 16.1693 98.4494 16.5027C98.4627 17.0227 98.7361 17.6027 99.2694 18.2427ZM101.869 22.6627C101.309 22.236 100.783 21.7893 100.289 21.3227C99.7961 20.8427 99.3427 20.356 98.9294 19.8627C98.5161 20.076 98.1361 20.3227 97.7894 20.6027C97.4561 20.8693 97.2894 21.256 97.2894 21.7627C97.2894 22.256 97.4494 22.656 97.7694 22.9627C98.1027 23.2693 98.5161 23.4693 99.0094 23.5627C99.5027 23.6427 100.009 23.6093 100.529 23.4627C101.049 23.316 101.496 23.0493 101.869 22.6627Z" fill="#BACFD5"/>
<path d="M118.434 25.3827C117.381 25.3827 116.427 25.1693 115.574 24.7427C114.721 24.3027 114.041 23.656 113.534 22.8027C113.041 21.9493 112.794 20.8827 112.794 19.6027C112.807 18.3493 113.061 17.2827 113.554 16.4027C114.047 15.5227 114.721 14.856 115.574 14.4027C116.427 13.9493 117.401 13.7227 118.494 13.7227C119.534 13.7227 120.421 13.9093 121.154 14.2827C121.887 14.656 122.474 15.1627 122.914 15.8027C123.367 16.4427 123.661 17.1627 123.794 17.9627H121.694C121.601 17.376 121.381 16.916 121.034 16.5827C120.701 16.236 120.307 15.996 119.854 15.8627C119.401 15.716 118.947 15.6427 118.494 15.6427C117.307 15.6427 116.394 15.976 115.754 16.6427C115.127 17.3093 114.814 18.2493 114.814 19.4627C114.814 20.756 115.121 21.7493 115.734 22.4427C116.361 23.136 117.267 23.4827 118.454 23.4827C118.947 23.4827 119.427 23.4093 119.894 23.2627C120.361 23.1027 120.761 22.8493 121.094 22.5027C121.427 22.1427 121.641 21.6627 121.734 21.0627H123.854C123.707 21.8893 123.407 22.6293 122.954 23.2827C122.514 23.9227 121.914 24.436 121.154 24.8227C120.407 25.196 119.501 25.3827 118.434 25.3827Z" fill="#BACFD5"/>
<path d="M129.465 25.3827C128.532 25.3827 127.759 25.2027 127.145 24.8427C126.532 24.4827 126.072 23.9893 125.765 23.3627C125.459 22.7227 125.305 21.996 125.305 21.1827C125.292 19.956 125.632 18.9493 126.325 18.1627C127.032 17.3627 128.079 16.9627 129.465 16.9627C130.812 16.9627 131.832 17.3493 132.525 18.1227C133.232 18.896 133.585 19.916 133.585 21.1827C133.585 21.9693 133.439 22.6827 133.145 23.3227C132.852 23.9627 132.399 24.4693 131.785 24.8427C131.172 25.2027 130.399 25.3827 129.465 25.3827ZM129.465 23.6627C130.052 23.6627 130.499 23.536 130.805 23.2827C131.125 23.0293 131.339 22.7093 131.445 22.3227C131.552 21.9227 131.605 21.5227 131.605 21.1227C131.605 20.7093 131.552 20.3027 131.445 19.9027C131.339 19.5027 131.125 19.176 130.805 18.9227C130.499 18.6693 130.052 18.5427 129.465 18.5427C128.865 18.5427 128.405 18.676 128.085 18.9427C127.779 19.196 127.565 19.5227 127.445 19.9227C127.339 20.3093 127.285 20.7093 127.285 21.1227C127.285 21.5227 127.339 21.9227 127.445 22.3227C127.565 22.7093 127.779 23.0293 128.085 23.2827C128.405 23.536 128.865 23.6627 129.465 23.6627Z" fill="#BACFD5"/>
<path d="M136.599 25.1827C136.106 25.1827 135.779 25.0627 135.619 24.8227C135.459 24.5827 135.379 24.2893 135.379 23.9427C135.379 23.6227 135.459 23.3427 135.619 23.1027C135.792 22.8627 136.119 22.7427 136.599 22.7427C137.052 22.7427 137.359 22.8627 137.519 23.1027C137.692 23.3427 137.779 23.6227 137.779 23.9427C137.779 24.2893 137.692 24.5827 137.519 24.8227C137.359 25.0627 137.052 25.1827 136.599 25.1827Z" fill="#BACFD5"/>
<rect x="17.1164" y="8.59002" width="12.2222" height="21.1852" fill="#BACFD5" stroke="#BACFD5" stroke-width="0.814815"/>
<rect x="21.1906" y="8.59002" width="12.2222" height="16.2963" fill="#BACFD5" stroke="#BACFD5" stroke-width="0.814815"/>
<rect x="21.1906" y="16.7385" width="8.14815" height="8.14815" fill="#BACFD5" stroke="#BACFD5" stroke-width="0.814815"/>
</svg>
