<svg width="32" height="32" viewBox="0 0 32 32" fill="none" xmlns="http://www.w3.org/2000/svg">
<path d="M12.9722 23.2429C12.9235 23.4366 11.7047 28.0004 5.00096 28.0004C4.73575 28.0004 4.48139 27.895 4.29386 27.7075C4.10632 27.52 4.00096 27.2656 4.00096 27.0004C4.00096 20.2966 8.56471 19.0779 8.75846 19.0291C9.01589 18.9648 9.28832 19.0054 9.51583 19.1419C9.74333 19.2785 9.90727 19.4998 9.97159 19.7573C10.0359 20.0147 9.99532 20.2871 9.85877 20.5146C9.72222 20.7421 9.50089 20.9061 9.24346 20.9704C9.13096 21.0016 6.44096 21.7879 6.04846 25.9529C10.2135 25.5604 11.001 22.8754 11.0335 22.7504C11.0998 22.4933 11.2655 22.2731 11.4942 22.1382C11.7228 22.0032 11.9957 21.9647 12.2528 22.031C12.5099 22.0973 12.7302 22.263 12.8651 22.4917C13 22.7204 13.0385 22.9933 12.9722 23.2504V23.2429ZM24.5972 14.8179L24.001 15.4141V22.7054C24.0024 22.969 23.9515 23.2304 23.8511 23.4741C23.7506 23.7179 23.6027 23.9393 23.416 24.1254L19.126 28.4129C18.941 28.5992 18.7209 28.747 18.4785 28.8479C18.236 28.9487 17.976 29.0005 17.7135 29.0004C17.4968 29.0003 17.2815 28.9653 17.076 28.8966C16.7231 28.7799 16.4099 28.5668 16.1718 28.2814C15.9336 27.996 15.7801 27.6497 15.7285 27.2816L15.0572 22.4704L9.53096 16.9441L4.72221 16.2729C4.35364 16.2212 4.00681 16.0677 3.72072 15.8296C3.43464 15.5916 3.22065 15.2784 3.10284 14.9254C2.98503 14.5723 2.96807 14.1934 3.05386 13.8312C3.13965 13.4691 3.3248 13.1381 3.58846 12.8754L7.87596 8.58538C8.06206 8.39861 8.28344 8.25071 8.52722 8.15028C8.771 8.04985 9.03231 7.9989 9.29596 8.00038H16.5872L17.1835 7.40413C20.5185 4.07038 24.536 3.92663 26.1097 4.02038C26.5973 4.05001 27.0572 4.25707 27.4026 4.60249C27.748 4.9479 27.9551 5.40779 27.9847 5.89538C28.076 7.46413 27.9322 11.4829 24.5985 14.8179H24.5972ZM14.5872 10.0004H9.29596L5.00096 14.2929L9.64471 14.9404L14.5872 10.0004ZM22.001 17.4141L17.0597 22.3554L17.7097 27.0004L22.001 22.7054V17.4141Z" fill="#085269"/>
</svg>
