<svg width="193" height="48" viewBox="0 0 193 48" fill="none" xmlns="http://www.w3.org/2000/svg">
<path d="M70.1514 30.1643C69.6799 30.1643 69.2967 30.0538 69.002 29.8327C68.7073 29.597 68.4715 29.2433 68.2946 28.7717L63.8295 16.2162C63.6379 15.6563 63.6748 15.1773 63.94 14.7794C64.22 14.3816 64.6989 14.1826 65.3768 14.1826C65.8484 14.1826 66.2094 14.2931 66.4599 14.5142C66.7252 14.7352 66.9389 15.0815 67.101 15.5531L70.7483 26.4065H69.7978L73.644 15.5752C73.8208 15.1036 74.0345 14.7573 74.285 14.5363C74.5503 14.3005 74.8966 14.1826 75.3239 14.1826C75.7365 14.1826 76.0681 14.3005 76.3186 14.5363C76.5692 14.7573 76.7828 15.111 76.9597 15.5973L80.6291 26.4065H79.8112L83.5248 15.5531C83.6721 15.0963 83.8784 14.7573 84.1437 14.5363C84.409 14.3005 84.77 14.1826 85.2268 14.1826C85.8015 14.1826 86.2215 14.3816 86.4868 14.7794C86.752 15.1773 86.7815 15.6563 86.5752 16.2162L82.0659 28.7938C81.9038 29.2506 81.6827 29.597 81.4027 29.8327C81.1227 30.0538 80.7396 30.1643 80.2533 30.1643C79.7817 30.1643 79.4059 30.0538 79.1259 29.8327C78.8459 29.597 78.6175 29.2433 78.4407 28.7717L74.9481 18.8909H75.4787L71.9419 28.7938C71.7651 29.2506 71.5367 29.597 71.2567 29.8327C70.9914 30.0538 70.623 30.1643 70.1514 30.1643Z" fill="#BACFD5"/>
<path d="M92.0128 30.1643C91.4675 30.1643 91.0476 30.0169 90.7528 29.7222C90.4728 29.4275 90.3328 29.0075 90.3328 28.4622V15.8847C90.3328 15.3247 90.4728 14.9047 90.7528 14.6247C91.0476 14.33 91.4675 14.1826 92.0128 14.1826C92.5433 14.1826 92.9486 14.33 93.2285 14.6247C93.5233 14.9047 93.6706 15.3247 93.6706 15.8847V21.1456H93.3612C93.7001 20.4235 94.2012 19.8709 94.8643 19.4877C95.5422 19.0899 96.3085 18.8909 97.1632 18.8909C98.0326 18.8909 98.7473 19.0604 99.3073 19.3993C99.8673 19.7235 100.287 20.2246 100.567 20.9024C100.847 21.5656 100.987 22.4129 100.987 23.4445V28.4622C100.987 29.0075 100.84 29.4275 100.545 29.7222C100.265 30.0169 99.8526 30.1643 99.3073 30.1643C98.7768 30.1643 98.3642 30.0169 98.0695 29.7222C97.7895 29.4275 97.6495 29.0075 97.6495 28.4622V23.5992C97.6495 22.8477 97.5095 22.3098 97.2295 21.9856C96.9642 21.6466 96.5516 21.4772 95.9916 21.4772C95.2843 21.4772 94.7169 21.6982 94.2896 22.1403C93.8769 22.5824 93.6706 23.1719 93.6706 23.9087V28.4622C93.6706 29.597 93.118 30.1643 92.0128 30.1643Z" fill="#BACFD5"/>
<path d="M109.558 30.2085C108.276 30.2085 107.171 29.9801 106.242 29.5233C105.328 29.0517 104.621 28.3959 104.12 27.556C103.634 26.7012 103.391 25.6992 103.391 24.5497C103.391 23.4297 103.626 22.4498 104.098 21.6098C104.57 20.7551 105.225 20.0919 106.065 19.6204C106.92 19.1341 107.885 18.8909 108.961 18.8909C109.742 18.8909 110.449 19.0235 111.083 19.2888C111.717 19.5393 112.262 19.9077 112.719 20.394C113.176 20.8656 113.522 21.4477 113.758 22.1403C113.994 22.8182 114.111 23.5771 114.111 24.4171C114.111 24.6971 114.023 24.9108 113.846 25.0581C113.669 25.1907 113.411 25.2571 113.073 25.2571H106.132V23.5329H111.702L111.348 23.8424C111.348 23.2382 111.26 22.7371 111.083 22.3392C110.906 21.9266 110.648 21.6172 110.309 21.4108C109.985 21.2045 109.58 21.1014 109.094 21.1014C108.548 21.1014 108.084 21.2266 107.701 21.4772C107.318 21.7277 107.023 22.0887 106.817 22.5603C106.611 23.0319 106.507 23.5992 106.507 24.2624V24.4392C106.507 25.5592 106.765 26.3844 107.281 26.9149C107.812 27.4454 108.593 27.7107 109.624 27.7107C109.978 27.7107 110.383 27.6665 110.84 27.5781C111.297 27.4896 111.724 27.3496 112.122 27.1581C112.461 26.996 112.763 26.9444 113.028 27.0033C113.294 27.0475 113.5 27.1654 113.647 27.357C113.795 27.5486 113.876 27.7696 113.89 28.0201C113.92 28.2707 113.868 28.5212 113.736 28.7717C113.603 29.0075 113.382 29.2064 113.073 29.3685C112.571 29.6485 112.004 29.8548 111.37 29.9875C110.752 30.1348 110.147 30.2085 109.558 30.2085Z" fill="#BACFD5"/>
<path d="M122.132 30.2085C120.85 30.2085 119.744 29.9801 118.816 29.5233C117.902 29.0517 117.195 28.3959 116.694 27.556C116.208 26.7012 115.964 25.6992 115.964 24.5497C115.964 23.4297 116.2 22.4498 116.672 21.6098C117.143 20.7551 117.799 20.0919 118.639 19.6204C119.494 19.1341 120.459 18.8909 121.535 18.8909C122.316 18.8909 123.023 19.0235 123.657 19.2888C124.291 19.5393 124.836 19.9077 125.293 20.394C125.749 20.8656 126.096 21.4477 126.332 22.1403C126.567 22.8182 126.685 23.5771 126.685 24.4171C126.685 24.6971 126.597 24.9108 126.42 25.0581C126.243 25.1907 125.985 25.2571 125.646 25.2571H118.705V23.5329H124.276L123.922 23.8424C123.922 23.2382 123.834 22.7371 123.657 22.3392C123.48 21.9266 123.222 21.6172 122.883 21.4108C122.559 21.2045 122.154 21.1014 121.667 21.1014C121.122 21.1014 120.658 21.2266 120.275 21.4772C119.892 21.7277 119.597 22.0887 119.391 22.5603C119.184 23.0319 119.081 23.5992 119.081 24.2624V24.4392C119.081 25.5592 119.339 26.3844 119.855 26.9149C120.385 27.4454 121.166 27.7107 122.198 27.7107C122.552 27.7107 122.957 27.6665 123.414 27.5781C123.871 27.4896 124.298 27.3496 124.696 27.1581C125.035 26.996 125.337 26.9444 125.602 27.0033C125.867 27.0475 126.074 27.1654 126.221 27.357C126.368 27.5486 126.449 27.7696 126.464 28.0201C126.494 28.2707 126.442 28.5212 126.309 28.7717C126.177 29.0075 125.956 29.2064 125.646 29.3685C125.145 29.6485 124.578 29.8548 123.944 29.9875C123.325 30.1348 122.721 30.2085 122.132 30.2085Z" fill="#BACFD5"/>
<path d="M132.981 30.2085C131.67 30.2085 130.69 29.8475 130.041 29.1254C129.393 28.3886 129.069 27.2981 129.069 25.8539V15.8847C129.069 15.3247 129.209 14.9047 129.489 14.6247C129.783 14.33 130.203 14.1826 130.749 14.1826C131.279 14.1826 131.684 14.33 131.964 14.6247C132.259 14.9047 132.407 15.3247 132.407 15.8847V25.7213C132.407 26.3255 132.532 26.7749 132.782 27.0696C133.048 27.3496 133.394 27.4896 133.821 27.4896C133.939 27.4896 134.05 27.4823 134.153 27.4675C134.256 27.4528 134.366 27.4454 134.484 27.4454C134.72 27.416 134.882 27.4896 134.971 27.6665C135.074 27.8286 135.125 28.1601 135.125 28.6612C135.125 29.1033 135.037 29.4422 134.86 29.678C134.683 29.899 134.411 30.0464 134.042 30.1201C133.895 30.1348 133.725 30.1496 133.534 30.1643C133.342 30.1938 133.158 30.2085 132.981 30.2085Z" fill="#BACFD5"/>
<path d="M137.601 30.1643C137.189 30.1643 136.85 30.0685 136.584 29.8769C136.334 29.6854 136.172 29.4275 136.098 29.1033C136.039 28.7791 136.106 28.418 136.297 28.0201L141.956 15.6194C142.192 15.1184 142.472 14.7573 142.796 14.5363C143.12 14.3005 143.496 14.1826 143.923 14.1826C144.351 14.1826 144.726 14.3005 145.051 14.5363C145.375 14.7573 145.647 15.1184 145.868 15.6194L151.571 28.0201C151.763 28.418 151.829 28.7864 151.77 29.1254C151.726 29.4496 151.579 29.7075 151.328 29.899C151.078 30.0759 150.754 30.1643 150.356 30.1643C149.855 30.1643 149.464 30.0464 149.184 29.8106C148.919 29.5748 148.683 29.2064 148.477 28.7054L147.15 25.6328L148.521 26.5833H139.303L140.674 25.6328L139.37 28.7054C139.149 29.2212 138.913 29.597 138.662 29.8327C138.427 30.0538 138.073 30.1643 137.601 30.1643ZM143.879 18.0288L141.05 24.7708L140.453 23.9087H147.372L146.775 24.7708L143.923 18.0288H143.879Z" fill="#BACFD5"/>
<path d="M155.637 34.1431C155.092 34.1431 154.672 33.9958 154.377 33.7011C154.097 33.4211 153.957 33.0011 153.957 32.4411V20.6151C153.957 20.0698 154.097 19.6572 154.377 19.3772C154.672 19.0825 155.077 18.9351 155.593 18.9351C156.138 18.9351 156.551 19.0825 156.831 19.3772C157.111 19.6572 157.251 20.0698 157.251 20.6151V22.1182L157.008 21.2561C157.229 20.5488 157.671 19.9814 158.334 19.5541C159.012 19.112 159.785 18.8909 160.655 18.8909C161.598 18.8909 162.423 19.1193 163.131 19.5762C163.853 20.033 164.413 20.6814 164.811 21.5214C165.208 22.3614 165.407 23.3634 165.407 24.5276C165.407 25.6918 165.208 26.7012 164.811 27.556C164.413 28.4107 163.86 29.0664 163.153 29.5233C162.445 29.9801 161.613 30.2085 160.655 30.2085C159.8 30.2085 159.041 30.0022 158.378 29.5896C157.715 29.1622 157.266 28.6096 157.03 27.9317H157.295V32.4411C157.295 33.0011 157.148 33.4211 156.853 33.7011C156.573 33.9958 156.168 34.1431 155.637 34.1431ZM159.66 27.7107C160.132 27.7107 160.544 27.5928 160.898 27.357C161.266 27.1212 161.546 26.7749 161.738 26.3181C161.944 25.8465 162.048 25.2497 162.048 24.5276C162.048 23.4518 161.826 22.6634 161.384 22.1624C160.942 21.6466 160.368 21.3887 159.66 21.3887C159.189 21.3887 158.769 21.4993 158.4 21.7203C158.047 21.9414 157.767 22.2877 157.56 22.7592C157.354 23.2161 157.251 23.8055 157.251 24.5276C157.251 25.6034 157.472 26.4065 157.914 26.937C158.356 27.4528 158.938 27.7107 159.66 27.7107Z" fill="#BACFD5"/>
<path d="M169.571 34.1431C169.026 34.1431 168.606 33.9958 168.311 33.7011C168.031 33.4211 167.891 33.0011 167.891 32.4411V20.6151C167.891 20.0698 168.031 19.6572 168.311 19.3772C168.606 19.0825 169.011 18.9351 169.527 18.9351C170.072 18.9351 170.485 19.0825 170.765 19.3772C171.045 19.6572 171.185 20.0698 171.185 20.6151V22.1182L170.941 21.2561C171.162 20.5488 171.604 19.9814 172.268 19.5541C172.946 19.112 173.719 18.8909 174.589 18.8909C175.532 18.8909 176.357 19.1193 177.064 19.5762C177.786 20.033 178.346 20.6814 178.744 21.5214C179.142 22.3614 179.341 23.3634 179.341 24.5276C179.341 25.6918 179.142 26.7012 178.744 27.556C178.346 28.4107 177.794 29.0664 177.086 29.5233C176.379 29.9801 175.547 30.2085 174.589 30.2085C173.734 30.2085 172.975 30.0022 172.312 29.5896C171.649 29.1622 171.199 28.6096 170.963 27.9317H171.229V32.4411C171.229 33.0011 171.081 33.4211 170.787 33.7011C170.507 33.9958 170.101 34.1431 169.571 34.1431ZM173.594 27.7107C174.065 27.7107 174.478 27.5928 174.832 27.357C175.2 27.1212 175.48 26.7749 175.672 26.3181C175.878 25.8465 175.981 25.2497 175.981 24.5276C175.981 23.4518 175.76 22.6634 175.318 22.1624C174.876 21.6466 174.301 21.3887 173.594 21.3887C173.122 21.3887 172.702 21.4993 172.334 21.7203C171.98 21.9414 171.7 22.2877 171.494 22.7592C171.288 23.2161 171.185 23.8055 171.185 24.5276C171.185 25.6034 171.406 26.4065 171.848 26.937C172.29 27.4528 172.872 27.7107 173.594 27.7107Z" fill="#BACFD5"/>
<line x1="14.9516" y1="28.9641" x2="55.2061" y2="37.9096" stroke="#BACFD5" stroke-width="2.23636"/>
<path d="M36.4873 28.3504C34.8639 29.5952 32.8997 30.3158 30.8563 30.416C28.813 30.5162 26.7877 29.9913 25.0503 28.9112C23.3129 27.8311 21.9459 26.2472 21.1315 24.3705C20.3172 22.4938 20.0941 20.4135 20.4921 18.4068C20.89 16.4001 21.8901 14.5624 23.359 13.1385C24.8279 11.7146 26.6959 10.7722 28.714 10.4369C30.7321 10.1016 32.8045 10.3893 34.6549 11.2617C36.5054 12.1341 38.046 13.5497 39.0714 15.3199" stroke="#BACFD5" stroke-width="2.23636"/>
<circle cx="44.5275" cy="23.3459" r="10.0636" stroke="#BACFD5" stroke-width="2.23636"/>
</svg>
