<svg width="28" height="28" viewBox="0 0 28 28" fill="none" xmlns="http://www.w3.org/2000/svg">
<path d="M26.5704 7.43938C26.2679 6.31481 25.3813 5.42833 24.2569 5.12552C22.2027 4.56348 13.986 4.56348 13.986 4.56348C13.986 4.56348 5.76958 4.56348 3.71544 5.10421C2.61266 5.4067 1.70439 6.31497 1.4019 7.43938C0.861328 9.49336 0.861328 13.7531 0.861328 13.7531C0.861328 13.7531 0.861328 18.0342 1.4019 20.0667C1.70471 21.1911 2.59103 22.0776 3.7156 22.3804C5.79121 22.9426 13.9863 22.9426 13.9863 22.9426C13.9863 22.9426 22.2027 22.9426 24.2569 22.4019C25.3815 22.0993 26.2679 21.2128 26.5708 20.0884C27.1112 18.0342 27.1112 13.7747 27.1112 13.7747C27.1112 13.7747 27.1328 9.49336 26.5704 7.43938ZM11.37 17.6883V9.8178L18.2026 13.7531L11.37 17.6883Z" fill="white"/>
</svg>
