<svg width="66" height="66" viewBox="0 0 66 66" fill="none" xmlns="http://www.w3.org/2000/svg">
<rect width="65" height="65" transform="translate(0.462402 0.652222)" fill="black"/>
<path d="M14.7817 8.97632L13.7366 9.94716L54.9266 54.2884L55.9718 53.3175L14.7817 8.97632Z" fill="white"/>
<path d="M54.9276 8.96619L13.7375 53.3075L14.7827 54.2783L55.9726 9.93702L54.9276 8.96619Z" fill="white"/>
<path d="M11.0858 29.7583C11.0858 29.3162 11.305 29.097 11.7507 29.097C15.2983 29.097 18.8459 29.097 22.3935 29.097C22.8355 29.097 23.0511 29.3162 23.0511 29.7657C23.0511 30.6126 23.0584 31.4596 23.0473 32.3103C23.0435 32.6409 23.0176 32.9752 22.9545 33.3021C22.609 35.1149 21.5912 36.4745 20.0793 37.4887C19.875 37.6261 19.6669 37.7673 19.3958 37.7673C17.6944 37.7598 15.9893 37.7673 14.2879 37.7598C14.1542 37.7598 14.0019 37.719 13.883 37.6521C13.2292 37.2955 12.6943 36.8014 12.2671 36.1959C12.1928 36.0882 12.1111 36.0585 11.9848 36.0473C10.5286 35.9173 9.35101 35.297 8.55605 34.0451C8.05456 33.2538 7.98027 32.4143 8.41118 31.5711C8.75294 30.8987 9.34358 30.5272 10.068 30.3675C10.3949 30.2932 10.7366 30.2709 11.0895 30.2189C11.0895 30.074 11.0895 29.918 11.0895 29.762L11.0858 29.7583ZM9.63333 31.7828C9.20613 32.1357 9.12441 32.7969 9.42531 33.343C9.84507 34.1008 10.6177 34.6654 11.539 34.8549C11.0821 33.7293 11.0412 32.5666 11.0932 31.3705C10.5323 31.3333 10.0457 31.4373 9.63333 31.7828Z" fill="white"/>
<path d="M17.464 27.6186C17.8912 27.392 18.311 27.1543 18.5153 26.6714C18.6565 26.3407 18.5859 26.0176 18.4001 25.7427C18.1215 25.3266 17.8057 24.9403 17.5011 24.5391C17.3488 24.3385 17.1891 24.1453 17.0442 23.941C16.6356 23.3615 16.5204 22.7746 17.1296 22.0985C16.6653 22.3437 16.2084 22.6037 16.0301 23.1498C15.9446 23.4098 15.9929 23.6735 16.1304 23.8927C16.3644 24.2642 16.6244 24.6171 16.8845 24.97C17.0851 25.2412 17.3191 25.4901 17.5123 25.7687C18.0026 26.4745 17.984 26.9425 17.464 27.6149V27.6186Z" fill="white"/>
<path d="M15.269 24.7137C14.931 24.8623 14.6784 25.048 14.5261 25.3378C14.4184 25.5458 14.4295 25.7687 14.5447 25.9619C14.7118 26.2368 14.905 26.5005 15.0982 26.7605C15.2616 26.976 15.4548 27.1729 15.6071 27.3921C15.9414 27.8713 15.9303 28.1796 15.5848 28.6514C16.2163 28.5325 16.5581 27.8713 16.2423 27.3252C16.0863 27.0577 15.8708 26.8274 15.6814 26.5785C15.5254 26.3742 15.3545 26.181 15.2059 25.973C14.9124 25.557 14.9198 25.2338 15.2096 24.814C15.2245 24.7954 15.2319 24.7732 15.269 24.7137Z" fill="white"/>
<path d="M53.3078 22.6707C53.1369 22.8155 52.9735 22.9456 52.8211 23.083C51.5136 24.2494 50.3806 25.5533 49.671 27.1729C49.0915 28.4954 48.8909 29.8513 49.3181 31.2629C49.6005 32.1879 50.1279 32.9717 50.7186 33.7183C50.9601 34.023 51.1978 34.3313 51.443 34.6322C52.3234 35.7057 52.5165 36.913 52.1376 38.2318C52.0819 38.4249 52.0299 38.6181 51.9705 38.8373C52.0262 38.8336 52.0708 38.8373 52.1079 38.8224C53.6941 38.2466 55.1763 37.4888 56.3799 36.2741C57.368 35.2748 57.9178 34.0935 57.7729 32.6559C57.6838 31.7941 57.3792 30.9991 56.8925 30.2971C56.339 29.4984 55.7187 28.748 55.1243 27.979C54.4371 27.0912 53.7758 26.1885 53.3264 25.1521C53.0812 24.58 52.9029 23.9931 53.0515 23.3616C53.1072 23.1313 53.2112 22.9158 53.3041 22.6669L53.3078 22.6707Z" fill="white"/>
<path d="M51.2048 38.6662C51.6691 37.5778 51.528 36.5563 50.9559 35.583C50.6921 35.1372 50.395 34.6989 50.0495 34.3125C49.0056 33.1461 48.4819 31.7531 48.2033 30.2486C48.1252 29.8288 48.129 29.3942 48.0918 28.9076C47.8281 29.4128 47.5569 29.8808 47.3303 30.3675C46.9551 31.1847 46.7173 32.0465 46.6951 32.9529C46.6579 34.5131 47.308 35.739 48.5302 36.6714C49.34 37.2881 50.1721 37.8787 50.993 38.4805C51.0599 38.5288 51.1231 38.5882 51.2048 38.6588V38.6662Z" fill="white"/>
<path d="M39.7973 14.613C39.7676 15.9875 39.5967 17.3285 39.0098 18.5915C38.5826 19.5128 37.9771 20.278 37.0707 20.7721C36.5134 21.0729 35.9154 21.2067 35.2839 21.1844C35.2504 21.1844 35.2133 21.177 35.1798 21.1695C34.7638 21.0841 34.6635 20.8761 34.853 20.4934C35.1464 19.8954 35.3953 19.2787 35.5327 18.6212C35.7593 17.5328 35.7148 16.4444 35.5142 15.3597C35.3582 14.5239 35.165 13.6955 35.035 12.8559C34.8901 11.9161 34.8084 10.9688 34.9087 10.0179C34.957 9.56837 35.0498 9.12632 35.2541 8.71769C35.4696 8.2905 35.7371 8.17163 36.194 8.30907C36.7623 8.47995 37.2341 8.81428 37.6576 9.21547C38.85 10.3522 39.4927 11.7675 39.7044 13.3871C39.7564 13.7958 39.7713 14.2081 39.801 14.6167L39.7973 14.613Z" fill="white"/>
<path d="M34.4701 8.23854C34.3104 8.70288 34.1432 9.12265 34.0169 9.55356C33.6455 10.8166 33.56 12.0945 33.9389 13.3686C34.1581 14.1079 34.3475 14.8545 34.4293 15.6198C34.615 17.336 34.5184 19.0224 33.8163 20.6272C33.6269 21.0618 33.7383 21.0433 33.2257 20.9058C32.5013 20.7127 31.9404 20.2595 31.4612 19.6985C30.6997 18.7996 30.2725 17.7409 30.0793 16.5967C29.8081 14.9622 29.8378 13.3315 30.343 11.7341C30.7071 10.5863 31.2866 9.56842 32.2636 8.82547C32.8022 8.41313 33.404 8.13452 34.1024 8.1531C34.2287 8.1531 34.3513 8.21254 34.4701 8.24225V8.23854Z" fill="white"/>
<path d="M34.9387 58.1239C33.7499 58.1239 32.5575 58.1239 31.3688 58.1276C31.2053 58.1276 31.1199 58.0756 31.0456 57.9345C30.7893 57.4404 30.4698 56.9761 30.3769 56.4077C30.2655 55.7279 30.3361 55.0741 30.6518 54.4575C31.0716 53.6514 31.4988 52.849 31.9334 52.0503C31.9706 51.9834 32.0857 51.9166 32.1637 51.9166C34.0137 51.9091 35.8673 51.9129 37.7173 51.9091C37.8473 51.9091 37.9067 51.9574 37.9662 52.0652C38.3599 52.8155 38.7611 53.5585 39.1586 54.3089C39.6935 55.3193 39.6898 56.3334 39.1586 57.3438C39.0212 57.6039 38.9209 57.9419 38.7017 58.0831C38.5011 58.2094 38.1593 58.1239 37.8807 58.1239C36.9 58.1239 35.9193 58.1239 34.9387 58.1239ZM38.8689 56.69V56.1588H31.0047V56.69H38.8689Z" fill="white"/>
<path d="M38.1738 47.9716C37.9732 48.436 37.7875 48.878 37.5646 49.3981C38.3001 49.1938 38.9725 49.0081 39.6597 48.8186C39.7117 48.9969 39.76 49.1604 39.8195 49.3572C39.4406 49.465 39.0691 49.5727 38.6567 49.6916C38.8833 49.7882 39.0691 49.8699 39.2771 49.959C39.2102 50.1299 39.1471 50.2896 39.0765 50.468C38.5899 50.2785 38.1181 50.1002 37.6463 49.9182C37.6315 49.9367 37.6166 49.9516 37.6018 49.9702C37.7912 50.4197 37.9844 50.8729 38.185 51.3446H31.7102C31.9033 50.884 32.0928 50.4382 32.2822 49.9887C32.0148 49.8922 32.1411 49.673 32.1299 49.5021C32.1262 49.4427 32.2042 49.3721 32.2674 49.2718C32.1002 48.8818 31.9108 48.4397 31.7139 47.9754H38.185L38.1738 47.9716Z" fill="white"/>
<path d="M32.3675 46.4296C32.0964 45.8056 31.8363 45.2038 31.5651 44.576H38.2294C37.988 45.0998 37.7502 45.6087 37.5088 46.1362C37.6833 46.2179 37.8431 46.2959 38.014 46.3776C38.2591 45.8539 38.4932 45.3487 38.7309 44.8434C38.83 44.6329 39.0046 44.5463 39.2547 44.5834C39.2324 44.6428 39.2101 44.6986 39.1841 44.7506C38.7755 45.5715 38.3631 46.3888 37.9582 47.2097C37.8951 47.3398 37.8245 47.388 37.6796 47.388C35.852 47.3843 34.0243 47.388 32.1967 47.3806C32.1149 47.3806 31.9886 47.3323 31.9552 47.2692C31.502 46.3851 31.0599 45.4935 30.6067 44.5908C30.8222 44.5203 30.9485 44.55 31.0414 44.7766C31.2977 45.4007 31.5763 46.0136 31.8549 46.6451C32.0258 46.5708 32.1818 46.5039 32.3675 46.4259V46.4296Z" fill="white"/>
<path d="M30.5959 42.3657C33.3485 42.7112 36.0529 43.0492 38.7869 43.391C38.6941 43.5878 38.6309 43.7624 38.5343 43.9147C38.4972 43.9705 38.3783 43.9965 38.2966 43.9965C37.1599 44.0002 36.0269 43.9965 34.8902 43.9965C33.772 43.9965 32.6502 43.9965 31.532 43.9965C31.3686 43.9965 31.2831 43.9519 31.22 43.7959C31.0305 43.3315 30.8225 42.8709 30.5959 42.3583V42.3657Z" fill="white"/>
<path d="M39.2667 42.3661C39.1924 42.5295 39.1404 42.6558 39.0735 42.7747C39.0549 42.8118 38.988 42.849 38.9509 42.8453C38.4197 42.7784 37.8922 42.7041 37.3647 42.6335C37.3536 42.6335 37.3424 42.615 37.3127 42.5927C37.9628 42.5184 38.5943 42.4478 39.2667 42.3698V42.3661Z" fill="white"/>
</svg>
